<?xml version="1.0" standalone="no"?>
<!DOCTYPE svg PUBLIC "-//W3C//DTD SVG 20010904//EN"
 "http://www.w3.org/TR/2001/REC-SVG-20010904/DTD/svg10.dtd">
<svg version="1.0" xmlns="http://www.w3.org/2000/svg"
 width="506.000000pt" height="506.000000pt" viewBox="0 0 506.000000 506.000000"
 preserveAspectRatio="xMidYMid meet">
<metadata>
Created by potrace 1.11, written by Peter Selinger 2001-2013
</metadata>
<g transform="translate(0.000000,506.000000) scale(0.100000,-0.100000)"
fill="#000000" stroke="none">
<path d="M464 5033 c-22 -104 -45 -185 -58 -210 -17 -34 -81 -275 -91 -345 -4
-28 -20 -67 -39 -94 -102 -148 -176 -279 -218 -383 -21 -53 -43 -104 -48 -113
-6 -11 -10 -136 -10 -310 l1 -293 39 75 c22 42 65 107 96 145 31 39 83 112
117 163 33 50 67 92 74 92 8 0 30 -7 50 -15 47 -20 88 -19 164 5 45 13 88 18
146 17 100 -2 99 0 107 -167 4 -63 9 -129 12 -147 6 -29 3 -34 -27 -47 -98
-42 -162 -66 -175 -66 -8 0 -34 -9 -56 -20 -23 -11 -46 -20 -51 -20 -5 0 -46
-18 -91 -39 -45 -22 -95 -45 -111 -51 -49 -19 -263 -80 -280 -80 -14 0 -15
-45 -13 -417 l3 -418 120 -7 c66 -4 131 -10 145 -13 37 -9 142 -25 168 -25 15
0 22 6 22 19 0 11 -4 23 -10 26 -6 3 -10 13 -10 21 0 8 5 12 10 9 7 -4 10 83
10 255 l0 261 141 -3 142 -3 44 -115 c24 -63 72 -198 107 -300 36 -102 69
-199 76 -216 6 -17 22 -37 36 -44 37 -20 119 13 258 103 99 65 115 80 127 113
7 22 13 46 14 56 1 9 6 22 12 30 6 7 22 49 37 93 14 44 44 125 65 180 l39 100
126 3 126 3 0 -61 0 -60 80 40 c50 25 93 40 117 40 29 0 34 3 25 12 -7 7 -12
16 -12 20 0 4 51 8 113 8 112 0 114 0 125 -26 8 -17 18 -24 30 -20 9 3 49 12
87 20 150 33 242 55 285 69 25 9 85 22 135 31 75 13 93 19 108 41 30 40 50 32
103 -45 45 -66 50 -70 85 -70 36 0 37 1 26 23 -7 12 -24 34 -39 49 -15 14 -30
38 -34 52 -3 14 -12 26 -18 26 -16 0 -61 61 -59 80 2 10 0 10 -3 3 -3 -7 -10
-13 -16 -13 -6 0 -8 25 -4 68 3 37 5 77 6 89 0 13 8 37 18 55 18 31 20 32 78
30 32 -1 68 2 79 7 81 37 317 60 334 33 5 -8 10 -13 12 -12 2 1 22 -1 44 -5
42 -8 102 -38 121 -62 10 -11 13 -11 17 2 4 9 -2 19 -16 26 -12 7 -35 23 -50
35 -16 14 -42 24 -58 24 -17 0 -42 6 -57 14 -35 18 -210 11 -259 -9 -20 -8
-46 -15 -59 -15 -12 0 -26 -5 -29 -10 -4 -7 -30 -9 -67 -5 -64 6 -98 0 -98
-16 0 -6 -12 -36 -26 -66 -14 -32 -23 -66 -20 -78 3 -12 -1 -31 -9 -42 -16
-23 -8 -64 15 -78 8 -5 5 -12 -9 -22 -12 -8 -21 -25 -21 -39 0 -24 -1 -24 -95
-24 -79 0 -96 3 -105 18 -9 14 -10 13 -4 -8 6 -24 5 -24 -8 -6 -9 11 -18 15
-21 9 -4 -6 -18 -9 -32 -8 -14 2 -27 -1 -31 -6 -3 -5 -12 -9 -21 -9 -12 0 -13
3 -4 14 9 11 8 18 -4 30 -16 16 -13 36 6 36 6 0 8 -4 5 -8 -2 -4 -1 -14 4 -22
18 -29 23 19 6 60 -17 42 -12 74 10 66 8 -3 14 1 14 10 0 8 5 12 10 9 6 -4 17
-1 25 5 12 10 15 9 15 -4 0 -14 2 -15 14 -4 8 7 11 17 6 22 -5 5 -4 20 1 34 5
14 7 32 4 40 -3 8 0 21 6 28 9 11 5 14 -24 14 -43 0 -51 9 -37 45 9 24 12 25
27 14 14 -12 15 -11 8 10 -5 18 -4 22 5 16 7 -4 4 7 -6 25 -14 25 -16 34 -6
37 6 3 10 9 6 14 -3 5 -7 18 -9 28 -3 15 1 18 12 14 12 -5 14 -1 9 18 -3 13
-3 18 0 12 8 -18 34 -16 34 2 0 9 6 12 15 9 8 -4 15 -2 15 4 0 15 -26 22 -39
9 -8 -8 -11 -8 -11 1 0 27 43 30 78 5 41 -27 45 -28 77 -7 15 10 25 12 25 5 0
-6 9 -11 19 -11 10 0 22 -7 25 -16 3 -9 15 -14 28 -12 28 4 21 24 -7 21 -11
-1 -14 1 -7 4 7 3 18 17 23 31 8 19 12 23 18 13 7 -10 10 -10 16 -1 4 7 1 17
-6 22 -11 8 -10 9 3 5 9 -3 19 -1 22 6 2 7 5 -1 5 -16 1 -16 -5 -30 -14 -33
-21 -9 -19 -24 4 -24 14 0 18 -5 14 -21 -3 -11 -11 -18 -18 -15 -7 2 -16 -5
-19 -17 -7 -28 -5 -29 32 -15 20 8 30 18 27 26 -3 8 0 10 8 5 6 -4 20 -6 30
-5 11 2 17 -3 17 -17 0 -25 20 -39 21 -14 0 14 2 14 9 -4 5 -13 12 -23 15 -23
13 0 36 30 30 40 -3 5 -3 15 1 21 5 8 9 8 14 -1 5 -8 11 -7 22 4 23 22 66 30
83 16 12 -10 15 -9 15 4 0 19 21 21 38 4 15 -15 16 -39 1 -36 -6 2 -14 -3 -17
-11 -3 -11 0 -12 14 -6 11 4 30 7 43 6 18 -1 22 3 17 17 -5 15 -4 15 6 2 30
-36 97 -49 131 -25 10 7 26 11 33 8 9 -3 14 1 14 12 0 9 6 15 13 12 6 -2 17 3
24 12 11 14 12 13 13 -5 0 -12 6 -24 14 -27 10 -4 12 0 8 15 -4 18 -2 20 17
15 22 -5 22 -5 5 14 -15 16 -15 19 -2 19 12 0 16 10 15 34 -1 41 -13 37 -33
-11 -9 -19 -19 -31 -25 -27 -6 4 -14 2 -18 -3 -11 -17 -81 -55 -81 -44 0 5 8
15 18 20 9 6 12 11 5 11 -6 0 -23 -14 -37 -31 -21 -25 -26 -27 -27 -12 0 10
-3 13 -6 6 -6 -17 -43 -17 -43 0 0 6 -14 25 -31 41 -17 16 -38 40 -46 53 -15
22 -17 23 -34 7 -12 -11 -19 -13 -19 -5 0 7 -8 11 -17 10 -40 -4 -73 2 -73 12
0 6 -6 17 -14 24 -12 12 -14 10 -18 -15 -3 -19 2 -34 14 -44 10 -9 18 -21 18
-28 0 -10 -3 -9 -9 1 -7 10 -13 11 -27 2 -17 -9 -17 -10 -1 -11 9 0 17 -4 17
-9 0 -5 -9 -7 -20 -4 -11 3 -20 9 -20 14 0 5 -13 9 -30 9 -23 0 -31 5 -36 25
-5 19 -10 23 -19 15 -8 -7 -17 -4 -29 9 -16 18 -16 20 0 29 13 7 14 13 6 28
-9 15 -5 23 20 44 l30 25 -16 39 c-20 48 -20 66 -1 66 8 0 15 3 15 6 0 25 -64
93 -87 94 -7 0 -13 5 -13 10 0 6 -6 10 -14 10 -8 0 -16 7 -20 15 -3 8 -11 15
-18 15 -20 1 -102 80 -127 123 -12 20 -26 37 -31 37 -19 0 4 39 26 44 55 14
173 121 174 158 0 9 5 20 11 23 5 4 9 14 7 23 -2 10 5 25 15 34 22 20 34 83
18 93 -16 9 -13 25 3 25 10 0 14 10 14 29 -1 15 2 33 6 40 4 6 1 11 -8 11 -18
0 -21 11 -6 26 7 7 6 29 -4 70 -8 32 -18 77 -23 99 -7 33 -13 40 -32 39 -17
-1 -21 4 -18 18 6 21 5 21 -28 6 -14 -6 -21 -14 -15 -18 5 -3 -5 -7 -23 -7
-17 -1 -45 -8 -62 -17 -16 -9 -38 -16 -48 -16 -18 0 -67 27 -78 44 -4 5 -15 6
-25 2 -43 -17 -64 -17 -66 1 -3 44 -17 75 -29 67 -5 -3 -9 2 -9 10 0 9 -6 17
-12 17 -38 4 -67 10 -98 21 -33 12 -40 18 -40 34 0 4 -6 1 -14 -5 -9 -8 -16
-8 -20 -2 -4 6 -13 8 -20 5 -8 -3 -17 -1 -21 5 -4 7 6 14 24 17 17 4 31 13 31
20 0 11 -27 14 -135 14 -117 0 -134 -2 -128 -15 4 -12 0 -15 -18 -11 -13 2
-32 7 -41 11 -11 4 -18 3 -18 -4 0 -8 -5 -9 -19 -1 -23 12 -52 13 -50 3 4 -22
-3 -33 -20 -33 -11 0 -22 -4 -25 -8 -3 -5 -28 -6 -56 -2 -27 4 -50 4 -50 1 0
-4 -9 -12 -21 -19 -12 -8 -18 -9 -14 -3 3 6 -1 11 -10 11 -9 0 -13 -4 -10 -10
3 -5 1 -10 -4 -10 -19 0 -12 18 19 48 17 17 30 32 30 35 0 2 -20 5 -45 5 -27
1 -43 -3 -40 -8 3 -6 1 -10 -4 -10 -6 0 -11 4 -11 10 0 6 -233 10 -640 10
l-640 0 -6 -27z m1346 3 c0 -7 -8 -20 -17 -27 -17 -13 -17 -12 -4 4 13 16 13
20 0 28 -11 7 -11 9 4 9 9 0 17 -6 17 -14z m395 -6 c3 -5 -3 -10 -14 -10 -12
0 -21 5 -21 10 0 6 6 10 14 10 8 0 18 -4 21 -10z m-555 -13 c0 -8 -6 -14 -14
-14 -8 0 -12 6 -9 14 3 7 9 13 14 13 5 0 9 -6 9 -13z m305 -33 c14 -6 14 -8
-1 -25 -9 -11 -21 -19 -26 -19 -10 0 -11 34 -1 43 8 8 8 8 28 1z m-130 -34 c3
-5 1 -10 -4 -10 -6 0 -11 5 -11 10 0 6 2 10 4 10 3 0 8 -4 11 -10z m95 -31 c0
-5 -4 -8 -9 -5 -5 4 -11 1 -13 -6 -3 -8 -7 -6 -11 5 -5 12 -1 17 13 17 11 0
20 -5 20 -11z m-750 -147 c118 -129 210 -201 354 -277 93 -49 155 -61 136 -26
-13 25 -13 54 0 46 5 -3 17 -22 26 -41 9 -20 52 -76 96 -124 43 -49 78 -93 78
-98 0 -5 38 -50 85 -100 47 -51 85 -97 85 -102 0 -5 44 -56 98 -112 54 -57
119 -134 145 -173 47 -72 136 -170 195 -218 25 -20 35 -37 38 -65 8 -66 11
-65 -238 -64 -122 0 -263 5 -313 10 -49 6 -138 9 -198 7 -80 -2 -109 1 -115
10 -4 7 -20 15 -37 18 -46 7 -125 47 -141 72 -8 12 -23 62 -33 111 -11 49 -43
154 -71 234 -71 199 -115 340 -135 435 -23 102 -58 210 -100 305 -19 41 -39
98 -45 125 -6 28 -15 61 -19 75 -8 28 -3 63 8 58 4 -2 50 -49 101 -106z m153
62 c3 -3 -4 -15 -15 -26 -11 -11 -17 -25 -15 -32 3 -8 -5 -13 -25 -13 l-30 0
28 15 c17 9 24 17 17 19 -18 6 -16 23 2 23 8 0 15 5 15 10 0 11 13 13 23 4z
m493 -40 c-11 -8 -27 -14 -35 -14 -10 0 -4 8 14 20 33 21 51 17 21 -6z m-431
-34 c16 -19 16 -22 3 -11 -24 18 -23 2 2 -24 22 -23 19 -49 -6 -59 -18 -7 -45
4 -38 15 3 5 1 9 -4 9 -12 0 -25 30 -17 38 3 3 11 -3 19 -13 8 -11 15 -14 20
-7 3 6 -1 18 -10 26 -9 9 -11 16 -4 16 6 0 8 5 5 10 -3 6 -3 15 0 21 4 6 8 9
9 7 0 -2 10 -14 21 -28z m69 -69 c-3 -3 -15 6 -27 18 l-22 24 27 -19 c14 -10
24 -21 22 -23z m6 -52 c10 -18 9 -20 -12 -18 -13 2 -29 0 -37 -5 -8 -5 -16 -3
-22 5 -10 17 8 39 19 24 12 -17 35 -17 29 0 -9 23 11 18 23 -6z m146 -96 c-4
-8 3 -17 17 -23 12 -5 15 -9 7 -9 -21 0 -45 21 -46 41 -1 10 4 14 13 11 8 -3
12 -12 9 -20z m481 -445 c13 -12 23 -29 22 -37 0 -10 -3 -11 -5 -4 -3 7 -12 9
-21 6 -11 -4 -14 -3 -9 6 5 7 0 21 -10 32 -24 26 -6 24 23 -3z m72 -59 c-22
-14 -33 -10 -19 6 7 8 17 12 22 9 6 -4 5 -10 -3 -15z m128 -81 c-3 -7 -5 -2
-5 12 0 14 2 19 5 13 2 -7 2 -19 0 -25z m593 -3 c0 -8 -4 -15 -10 -15 -5 0 -7
7 -4 15 4 8 8 15 10 15 2 0 4 -7 4 -15z m-660 -22 c0 -13 -3 -13 -15 -3 -8 7
-15 16 -15 21 0 5 7 6 15 3 8 -4 15 -13 15 -21z m710 23 c0 -2 -7 -6 -15 -10
-8 -3 -15 -1 -15 4 0 6 7 10 15 10 8 0 15 -2 15 -4z m-640 -46 c0 -5 -5 -10
-11 -10 -5 0 -7 5 -4 10 3 6 8 10 11 10 2 0 4 -4 4 -10z m695 -48 c-7 -8 -35
7 -35 18 0 6 7 6 20 -2 10 -7 17 -14 15 -16z m-691 -17 c-4 -8 -8 -15 -10 -15
-2 0 -4 7 -4 15 0 8 4 15 10 15 5 0 7 -7 4 -15z m92 -22 c-10 -10 -19 5 -10
18 6 11 8 11 12 0 2 -7 1 -15 -2 -18z m47 -142 c-1 -2 -9 2 -18 9 -12 10 -15
10 -15 -1 0 -10 -3 -10 -12 -1 -8 8 -5 16 13 31 l24 19 6 -26 c3 -15 4 -29 2
-31z m397 -11 c0 5 5 10 11 10 16 0 5 -25 -12 -26 -8 -1 -19 -2 -26 -3 -7 0
-21 -10 -31 -21 -16 -18 -20 -18 -38 -5 -18 14 -18 14 6 15 14 0 32 9 40 19
10 15 18 17 32 10 12 -6 18 -6 18 1z m160 -10 c0 -5 -4 -10 -10 -10 -5 0 -10
5 -10 10 0 6 5 10 10 10 6 0 10 -4 10 -10z m-510 -27 c0 -8 5 -11 10 -8 6 3
10 1 10 -4 0 -17 -20 -13 -27 5 -5 13 -7 13 -14 2 -6 -9 -9 -7 -9 9 0 16 4 21
15 17 8 -4 15 -13 15 -21z m610 -115 c0 -18 -2 -20 -9 -8 -6 8 -7 18 -5 22 9
14 14 9 14 -14z m-1996 -78 c-6 -5 -24 21 -24 34 0 6 6 1 14 -10 8 -10 12 -21
10 -24z m2061 30 c3 -5 -1 -10 -9 -10 -9 0 -16 5 -16 10 0 6 4 10 9 10 6 0 13
-4 16 -10z m-2011 -26 c5 -14 4 -15 -8 -5 -11 9 -15 9 -19 -1 -4 -8 -6 -7 -6
5 -1 22 25 22 33 1z m6 -45 c0 -6 -4 -7 -10 -4 -5 3 -10 11 -10 16 0 6 5 7 10
4 6 -3 10 -11 10 -16z m1470 -72 c0 -8 -6 -14 -14 -14 -8 0 -12 6 -9 14 3 7 9
13 14 13 5 0 9 -6 9 -13z m-1339 -79 c1 -7 1 -16 0 -20 -2 -13 17 -9 22 5 4 8
6 8 6 1 1 -7 -8 -22 -19 -35 -18 -21 -21 -22 -32 -8 -7 8 -21 18 -31 22 -24 9
-17 30 14 38 36 10 39 10 40 -3z m105 -65 c4 -10 8 -30 8 -46 1 -24 0 -25 -11
-10 -9 12 -10 19 -2 24 7 4 0 14 -17 28 -24 19 -25 21 -6 21 11 0 23 -8 28
-17z m-246 -35 c0 -19 -2 -20 -10 -8 -13 19 -13 30 0 30 6 0 10 -10 10 -22z
m1370 -103 l0 -85 -85 0 -85 0 0 85 0 85 85 0 85 0 0 -85z m-1270 66 c0 -5 -7
-11 -15 -15 -15 -5 -20 5 -8 17 9 10 23 9 23 -2z m182 -23 c-9 -9 -12 -7 -12
12 0 19 3 21 12 12 9 -9 9 -15 0 -24z m-194 -38 c1 -27 -1 -29 -15 -15 -8 9
-12 22 -9 30 9 25 23 17 24 -15z m159 -72 c-3 -8 -6 -5 -6 6 -1 11 2 17 5 13
3 -3 4 -12 1 -19z m37 7 c-4 -8 -7 -15 -9 -15 -2 0 -5 7 -9 15 -3 9 0 15 9 15
9 0 12 -6 9 -15z m-194 -110 c0 -8 -1 -17 -2 -18 -2 -2 3 -11 10 -20 10 -12
11 -21 3 -36 -14 -26 -14 -31 4 -31 9 0 12 6 9 15 -5 11 -2 13 10 9 14 -5 16
-2 11 22 -4 20 0 16 10 -11 19 -49 39 -65 73 -59 25 5 26 5 8 -14 -23 -26 -31
-83 -10 -75 7 3 14 0 14 -6 0 -6 -4 -11 -9 -11 -6 0 -6 -12 0 -30 6 -16 16
-30 21 -30 6 0 3 -11 -6 -24 -12 -18 -12 -26 -3 -29 16 -7 -13 -29 -30 -22 -7
2 -15 0 -19 -6 -11 -18 -32 10 -29 39 1 15 9 41 18 59 9 17 14 38 11 46 -3 8
-1 18 5 22 13 7 15 25 3 25 -5 0 -14 -16 -22 -35 -17 -44 -39 -45 -79 -4 -41
40 -64 92 -59 129 5 34 -14 42 -31 13 -5 -10 -13 -15 -17 -10 -13 13 28 48 49
41 22 -7 37 10 37 44 0 12 5 22 10 22 6 0 10 -7 10 -15z m99 -52 c0 -11 -3
-13 -6 -5 -2 6 -9 10 -14 6 -5 -3 -9 0 -9 5 0 6 7 11 15 11 8 0 15 -8 14 -17z
m61 -159 c0 -8 -4 -12 -10 -9 -5 3 -10 10 -10 16 0 5 5 9 10 9 6 0 10 -7 10
-16z m-969 -355 c8 -15 8 -19 0 -15 -6 4 -11 2 -11 -3 0 -6 -9 -11 -20 -11
-25 0 -26 18 -2 36 22 17 19 18 33 -7z"/>
<path d="M1222 2729 c-12 -19 -11 -19 8 -9 11 6 20 15 20 20 0 17 -15 11 -28
-11z"/>
<path d="M1240 2695 c0 -8 4 -15 10 -15 5 0 7 7 4 15 -4 8 -8 15 -10 15 -2 0
-4 -7 -4 -15z"/>
<path d="M1870 5050 c0 -5 7 -7 15 -4 8 4 15 8 15 10 0 2 -7 4 -15 4 -8 0 -15
-4 -15 -10z"/>
<path d="M3510 5036 c0 -17 9 -27 30 -36 17 -7 30 -18 30 -25 0 -7 7 -16 16
-19 8 -3 12 -10 9 -16 -3 -5 1 -10 9 -10 9 0 16 -4 16 -9 0 -5 7 -11 16 -13
14 -3 13 -7 -6 -30 -12 -16 -17 -28 -11 -28 5 0 13 5 17 11 4 6 13 -1 23 -18
19 -31 9 -53 -21 -45 -11 2 -19 -1 -20 -9 0 -8 -2 -18 -3 -24 -2 -5 -3 -18 -4
-28 -1 -14 -7 -16 -41 -11 -25 4 -40 3 -40 -4 0 -5 8 -8 18 -6 9 3 25 -1 35
-8 26 -19 12 -47 -21 -45 -18 1 -27 -3 -27 -13 0 -9 7 -14 19 -12 10 2 15 -1
12 -6 -3 -6 2 -8 13 -5 10 3 22 0 26 -6 4 -8 11 -6 21 4 20 19 34 11 34 -20 0
-27 -12 -37 -49 -40 -14 -1 -32 -3 -39 -3 -23 -3 -10 -66 15 -77 16 -7 21 -15
17 -27 -3 -10 -1 -18 5 -18 13 0 23 33 15 54 -8 21 18 31 45 16 25 -13 26 -23
5 -45 -9 -9 -13 -19 -10 -23 4 -3 11 0 17 8 8 13 10 13 19 0 6 -10 5 -20 -6
-30 -12 -13 -16 -13 -23 -1 -5 7 -22 13 -37 13 -16 0 -33 4 -39 8 -5 4 -16 2
-23 -6 -11 -12 -10 -14 6 -14 14 0 18 -8 19 -36 1 -44 6 -49 33 -34 24 13 71
3 49 -11 -11 -6 -10 -9 4 -15 28 -10 20 -39 -15 -52 -17 -6 -30 -13 -27 -15
10 -9 70 -16 64 -8 -9 15 14 23 43 16 23 -6 25 -8 9 -16 -9 -6 -17 -16 -17
-24 0 -8 -6 -12 -14 -9 -10 4 -12 -1 -9 -19 4 -20 0 -26 -24 -32 -15 -5 -32
-7 -37 -6 -19 5 -54 -22 -49 -36 4 -11 8 -12 13 -2 5 7 16 13 27 14 10 1 30 5
45 9 17 5 34 2 51 -8 13 -9 32 -14 41 -10 32 12 64 -5 78 -42 9 -26 20 -37 40
-41 16 -3 31 -10 34 -14 3 -5 12 -9 21 -9 8 0 27 -9 42 -19 15 -11 40 -23 57
-27 16 -4 41 -16 57 -26 43 -30 85 -41 177 -43 47 -1 94 -6 104 -12 16 -9 10
-13 -37 -28 -54 -17 -150 -86 -171 -124 -6 -9 -22 -29 -38 -46 -15 -16 -28
-36 -28 -42 0 -7 -4 -13 -10 -13 -5 0 -9 -15 -8 -32 0 -18 -9 -67 -22 -108
-28 -93 -34 -140 -35 -257 0 -50 -3 -89 -7 -86 -5 2 -8 -1 -8 -7 0 -6 7 -13
15 -16 10 -4 14 -20 14 -52 -1 -26 0 -53 2 -61 5 -21 -30 -26 -44 -7 -11 14
-51 24 -114 29 -13 1 -23 8 -23 16 0 8 6 11 15 7 10 -4 15 1 15 15 0 17 3 18
21 9 11 -7 22 -10 23 -8 2 2 10 17 18 35 13 26 13 31 2 26 -8 -3 -22 1 -31 8
-14 12 -15 11 -9 -9 6 -18 4 -22 -13 -22 -11 0 -23 -5 -26 -10 -4 -6 -11 -8
-16 -5 -5 4 -9 1 -9 -5 0 -6 -4 -8 -10 -5 -15 9 -12 -18 5 -42 8 -11 31 -24
52 -28 21 -4 52 -15 69 -26 17 -10 39 -19 47 -19 10 0 25 -19 37 -44 19 -42
22 -44 53 -39 28 4 41 -1 73 -28 21 -18 48 -40 59 -48 19 -16 19 -16 0 14 -10
17 -25 35 -33 41 -25 19 -7 44 32 44 52 0 89 17 82 37 -4 8 0 26 8 39 9 12 17
34 20 49 3 15 7 29 9 31 2 3 36 1 75 -2 55 -5 71 -10 75 -24 4 -16 10 -17 53
-8 27 5 63 13 79 18 43 13 69 3 82 -31 12 -30 33 -40 33 -14 0 8 4 15 9 15 5
0 12 10 15 23 4 12 20 32 36 45 l29 23 20 -20 c17 -17 19 -26 11 -46 -5 -14
-6 -25 -1 -25 14 0 22 -49 11 -70 -5 -10 -11 -32 -12 -47 -1 -15 -6 -34 -11
-40 -5 -7 -7 -20 -3 -28 4 -12 11 -13 32 -5 15 6 29 8 32 5 11 -10 -22 -55
-40 -55 -10 0 -18 -6 -18 -13 0 -8 -11 -19 -25 -25 -14 -7 -25 -7 -25 -2 0 5
-12 -2 -27 -16 -31 -29 -74 -40 -168 -43 -11 -1 -15 -4 -10 -10 10 -9 198 2
226 13 10 5 20 -2 29 -19 7 -14 16 -22 19 -18 11 16 60 11 66 -6 6 -14 8 -14
20 3 12 16 17 17 30 6 13 -11 18 -10 30 6 11 15 14 64 15 246 l0 226 -28 24
c-27 22 -56 81 -46 91 3 2 -2 38 -10 78 -8 41 -14 98 -14 127 0 42 3 52 18 52
9 0 31 5 49 11 l31 11 0 764 0 764 -35 0 c-32 0 -35 -2 -35 -31 0 -17 -4 -28
-10 -24 -5 3 -10 17 -10 31 0 13 -5 24 -11 24 -7 0 -9 -15 -6 -39 4 -34 0 -44
-30 -75 l-34 -35 -52 20 c-51 21 -139 27 -216 15 -44 -6 -52 -16 -14 -16 16 0
33 -3 37 -7 9 -10 30 -12 116 -16 36 -1 70 -7 75 -14 13 -15 65 -35 65 -25 0
5 -5 13 -12 20 -9 9 -7 12 10 12 13 0 22 6 22 15 0 9 11 21 25 27 14 6 25 18
25 25 0 8 4 12 8 9 12 -7 8 -78 -6 -103 -7 -13 -19 -23 -26 -23 -12 0 -39 -68
-40 -100 0 -8 -6 -19 -13 -23 -8 -5 -11 -12 -8 -17 9 -15 -17 -58 -39 -65
l-21 -6 21 -9 c30 -12 37 -27 18 -38 -15 -8 -15 -10 0 -15 23 -9 20 -30 -3
-22 -16 5 -18 2 -14 -15 4 -15 1 -20 -16 -20 -11 0 -21 6 -21 14 0 8 -8 17
-17 19 -13 3 -12 5 5 6 19 1 22 5 17 22 -5 16 -4 19 5 14 9 -5 11 -4 6 4 -5 7
-13 8 -23 3 -12 -7 -116 17 -141 33 -1 1 -4 16 -6 33 -2 23 1 32 12 32 12 0
12 3 2 15 -7 8 -16 12 -21 9 -13 -8 -11 10 3 24 15 15 -8 62 -31 61 -11 0 -12
-2 -3 -6 6 -2 12 -14 12 -24 0 -30 -18 -13 -25 24 -3 17 -10 41 -15 52 -8 19
-22 71 -24 88 -1 4 -6 11 -12 15 -6 4 -15 27 -20 52 l-9 45 -210 2 c-126 1
-202 -2 -190 -7 11 -5 16 -9 10 -9 -5 -1 -4 -5 4 -10 10 -7 6 -11 -17 -16 -18
-4 -39 -2 -49 5 -15 10 -14 11 8 6 32 -7 43 2 24 20 -18 18 -138 19 -157 1 -7
-7 -21 -16 -32 -20 -15 -6 -17 -4 -13 13 3 11 1 20 -4 20 -5 0 -9 -8 -9 -18 0
-11 -10 -23 -23 -29 -19 -9 -23 -8 -23 7 0 9 6 17 13 17 7 0 9 -5 6 -10 -3 -6
-1 -7 5 -3 6 4 9 13 5 21 -3 10 -20 15 -52 15 -43 -1 -45 -2 -27 -15 11 -8 15
-15 9 -15 -6 0 -16 7 -23 15 -19 23 -126 21 -139 -2 -10 -17 -10 -17 -11 0 0
14 -10 17 -60 17 -57 0 -60 -1 -60 -24z m105 -6 c3 -5 2 -10 -4 -10 -5 0 -13
5 -16 10 -3 6 -2 10 4 10 5 0 13 -4 16 -10z m192 -9 c22 8 23 7 20 -24 -2 -18
-7 -38 -11 -46 -6 -8 -2 -11 10 -9 13 2 20 -4 22 -19 2 -13 6 -23 10 -24 4 0
19 -2 35 -4 15 -2 27 0 27 5 0 4 9 6 20 3 11 -3 17 -9 14 -14 -8 -13 10 -11
26 4 12 10 12 9 2 -4 -6 -9 -9 -18 -6 -21 3 -3 -6 -18 -20 -33 -18 -20 -23
-32 -16 -40 13 -16 0 -27 -17 -14 -10 9 -13 8 -13 -4 0 -10 -6 -14 -15 -11 -8
4 -15 1 -15 -6 0 -6 -5 -8 -10 -5 -6 3 -18 -2 -28 -11 -16 -17 -16 -17 6 -12
17 5 22 3 19 -7 -4 -9 9 -15 45 -19 37 -5 48 -11 44 -21 -2 -7 0 -16 7 -18 7
-2 2 -2 -11 0 -20 3 -23 1 -17 -17 3 -11 2 -20 -3 -20 -6 0 -8 -9 -5 -20 3
-11 9 -20 14 -20 17 0 9 -35 -10 -47 -17 -11 -21 -9 -26 8 -5 15 -10 18 -18
10 -7 -7 -5 -16 11 -29 21 -19 18 -34 -9 -44 -12 -5 -16 -17 -13 -44 3 -41
-19 -76 -30 -48 -3 9 -3 27 0 41 4 16 2 28 -7 34 -11 7 -11 9 2 9 26 0 42 25
25 39 -8 6 -13 26 -12 43 l2 31 -23 -27 c-13 -15 -23 -22 -23 -17 0 6 -7 11
-16 11 -8 0 -13 4 -10 9 4 5 2 11 -4 13 -5 1 -11 13 -13 25 -2 12 -10 30 -19
40 -28 33 -38 59 -26 71 8 8 8 15 -2 27 -11 13 -9 15 11 13 15 -2 23 2 22 9
-2 7 8 20 22 29 19 12 22 18 12 29 -7 7 -16 10 -21 7 -5 -3 -6 3 -3 12 5 13 1
19 -13 23 -24 6 -26 29 -4 50 11 11 12 19 5 26 -16 16 -13 27 7 27 15 1 15 2
-2 15 -11 8 -14 15 -8 15 7 0 12 8 12 17 0 13 3 14 11 6 8 -8 20 -8 36 -2z
m403 -25 c0 -10 -7 -12 -22 -8 -21 5 -21 6 -2 13 10 4 20 8 22 8 1 1 2 -5 2
-13z m-200 -76 c0 -5 -4 -10 -9 -10 -6 0 -13 5 -16 10 -3 6 1 10 9 10 9 0 16
-4 16 -10z m-35 -120 c3 -5 1 -10 -4 -10 -6 0 -11 5 -11 10 0 6 2 10 4 10 3 0
8 -4 11 -10z m-65 -71 c0 -6 -4 -7 -10 -4 -5 3 -10 11 -10 16 0 6 5 7 10 4 6
-3 10 -11 10 -16z m-200 -131 c0 -11 -12 -10 -30 2 -12 7 -10 9 8 7 12 0 22
-5 22 -9z m290 -42 c0 -3 -4 -8 -10 -11 -5 -3 -10 -1 -10 4 0 6 5 11 10 11 6
0 10 -2 10 -4z m-243 -116 c2 -11 -2 -20 -7 -20 -6 0 -10 12 -10 27 0 29 12
24 17 -7z m54 -159 c-8 -5 -11 -15 -8 -23 3 -9 -1 -15 -9 -15 -17 0 -17 3 -4
28 6 10 16 19 23 19 8 0 7 -3 -2 -9z m-26 -101 c-3 -5 -12 -10 -18 -10 -7 0
-6 4 3 10 19 12 23 12 15 0z m1015 -247 c0 -7 -39 17 -46 28 -3 6 5 3 20 -6
14 -10 26 -19 26 -22z m159 -877 c0 -6 -3 -6 -6 2 -2 6 -13 12 -24 12 -19 0
-25 11 -12 23 8 9 43 -22 42 -37z m-4 -36 c3 -5 1 -10 -4 -10 -6 0 -11 5 -11
10 0 6 2 10 4 10 3 0 8 -4 11 -10z m2 -92 c-3 -7 -5 -2 -5 12 0 14 2 19 5 13
2 -7 2 -19 0 -25z"/>
<path d="M3820 4849 c0 -5 5 -7 10 -4 6 3 10 8 10 11 0 2 -4 4 -10 4 -5 0 -10
-5 -10 -11z"/>
<path d="M3887 4853 c-10 -10 -8 -23 4 -23 5 0 7 5 4 10 -3 6 3 10 14 10 10 0
22 -6 24 -12 3 -8 6 -6 6 5 1 11 -6 17 -22 17 -13 0 -27 -3 -30 -7z"/>
<path d="M3795 4750 c-4 -6 -12 -10 -18 -9 -32 4 -40 -1 -27 -16 18 -22 51
-20 43 3 -6 15 -5 15 10 3 9 -7 14 -17 11 -22 -3 -5 2 -9 10 -9 20 0 20 7 1
27 -8 8 -13 19 -10 24 4 5 2 9 -4 9 -5 0 -13 -5 -16 -10z"/>
<path d="M3920 4564 c0 -8 5 -12 10 -9 6 3 10 10 10 16 0 5 -4 9 -10 9 -5 0
-10 -7 -10 -16z"/>
<path d="M3304 5036 c11 -9 24 -16 30 -16 12 0 7 5 -24 19 -24 11 -24 11 -6
-3z"/>
<path d="M3443 5018 c-16 -21 -23 -48 -12 -48 21 0 74 33 60 38 -7 2 -17 -2
-22 -9 -7 -12 -9 -11 -10 1 -1 8 -1 18 0 23 2 11 -5 9 -16 -5z"/>
<path d="M3350 4994 c0 -2 9 -8 20 -14 11 -6 20 -7 20 -2 0 6 -9 12 -20 15
-11 3 -20 3 -20 1z"/>
<path d="M3590 4905 c0 -9 -4 -13 -10 -10 -5 3 -10 -1 -10 -11 0 -12 6 -15 23
-10 12 3 25 6 30 6 15 0 6 20 -13 30 -16 9 -20 8 -20 -5z"/>
<path d="M3640 4830 c0 -5 5 -10 11 -10 5 0 7 5 4 10 -3 6 -8 10 -11 10 -2 0
-4 -4 -4 -10z"/>
<path d="M3555 4780 c3 -5 13 -10 21 -10 8 0 14 5 14 10 0 6 -9 10 -21 10 -11
0 -17 -4 -14 -10z"/>
<path d="M4680 4740 c0 -5 10 -10 23 -10 18 0 19 2 7 10 -19 13 -30 13 -30 0z"/>
<path d="M4754 4710 c0 -24 11 -26 20 -4 8 22 8 24 -7 24 -7 0 -13 -9 -13 -20z"/>
<path d="M3664 4205 c-4 -8 -9 -13 -13 -11 -9 6 -37 -11 -31 -17 7 -7 80 26
80 35 0 14 -31 8 -36 -7z"/>
<path d="M3512 4084 c-12 -8 -22 -21 -22 -29 0 -7 -6 -16 -12 -18 -10 -4 -10
-6 -1 -6 7 -1 24 10 38 25 14 14 30 22 35 19 6 -3 10 1 10 9 0 20 -19 20 -48
0z"/>
<path d="M3470 3995 c0 -8 8 -19 19 -24 16 -9 17 -7 13 14 -5 27 -32 35 -32
10z"/>
<path d="M3520 3933 c0 -14 15 -30 38 -42 21 -11 22 -11 11 7 -13 21 -49 47
-49 35z"/>
<path d="M3650 3853 c0 -11 7 -23 15 -27 19 -7 19 3 0 28 -15 19 -15 19 -15
-1z"/>
<path d="M3110 3820 c0 -5 4 -10 8 -10 4 0 29 -21 55 -47 26 -25 47 -42 47
-36 0 12 -91 103 -102 103 -4 0 -8 -4 -8 -10z"/>
<path d="M3235 3710 c3 -5 11 -10 16 -10 6 0 7 5 4 10 -3 6 -11 10 -16 10 -6
0 -7 -4 -4 -10z"/>
<path d="M3689 3694 c-31 -17 -44 -31 -53 -61 -5 -14 -3 -23 3 -23 6 0 11 7
11 17 0 9 17 31 38 50 40 36 40 38 1 17z"/>
<path d="M3287 3655 c15 -19 29 -32 31 -30 6 5 -41 64 -51 64 -4 1 5 -15 20
-34z"/>
<path d="M3853 3588 c-11 -13 -24 -82 -14 -73 7 8 31 79 27 82 -2 2 -8 -2 -13
-9z"/>
<path d="M3605 3570 c-10 -11 -13 -20 -8 -20 13 0 38 29 31 35 -3 3 -13 -4
-23 -15z"/>
<path d="M3716 3575 c4 -8 8 -15 10 -15 2 0 4 7 4 15 0 8 -4 15 -10 15 -5 0
-7 -7 -4 -15z"/>
<path d="M3914 3555 c8 -8 21 -15 28 -15 8 1 6 6 -6 15 -26 20 -42 19 -22 0z"/>
<path d="M3750 3539 c0 -12 5 -19 13 -16 6 2 19 -2 27 -9 13 -11 16 -10 16 6
0 10 -3 17 -7 14 -4 -2 -9 3 -13 11 -8 23 -36 18 -36 -6z"/>
<path d="M3726 3504 c-4 -9 -4 -19 -1 -22 2 -3 7 3 11 12 4 9 4 19 1 22 -2 3
-7 -3 -11 -12z"/>
<path d="M2710 3325 c0 -8 5 -15 10 -15 6 0 10 7 10 15 0 8 -4 15 -10 15 -5 0
-10 -7 -10 -15z"/>
<path d="M3670 3271 c0 -21 21 -41 47 -45 10 -2 18 -9 18 -17 1 -8 6 -27 13
-42 7 -16 12 -34 12 -41 0 -20 11 -26 25 -13 11 10 11 15 0 27 -7 8 -15 30
-19 49 -4 22 -20 46 -44 67 -43 38 -52 41 -52 15z"/>
<path d="M2721 3173 c0 -6 -4 -20 -7 -30 -5 -14 -4 -15 5 -7 7 7 11 20 8 30
-3 11 -5 14 -6 7z"/>
<path d="M3490 3176 c0 -2 7 -7 16 -10 8 -3 12 -2 9 4 -6 10 -25 14 -25 6z"/>
<path d="M3520 3139 c0 -6 -7 -9 -15 -5 -9 3 -23 -2 -33 -12 -10 -9 -31 -18
-46 -19 -34 -3 -35 -3 -38 -32 -3 -28 25 -37 43 -15 9 11 15 11 25 3 7 -6 18
-8 24 -4 16 10 12 -12 -6 -30 -20 -19 -12 -32 7 -13 8 7 26 19 42 27 19 10 27
22 27 41 0 14 6 32 13 39 10 11 8 12 -9 3 -24 -13 -35 -7 -27 14 3 8 2 14 -1
14 -3 0 -6 -5 -6 -11z"/>
<path d="M2626 3111 c-4 -5 3 -7 14 -4 23 6 26 13 6 13 -8 0 -17 -4 -20 -9z"/>
<path d="M3820 3110 c0 -5 5 -10 11 -10 5 0 7 5 4 10 -3 6 -8 10 -11 10 -2 0
-4 -4 -4 -10z"/>
<path d="M3220 3058 c0 -31 -3 -35 -19 -31 -11 3 -21 12 -23 22 -3 14 -4 14
-10 -1 -4 -10 -1 -23 7 -32 8 -7 12 -16 9 -19 -3 -3 0 -15 6 -27 9 -18 9 -28
0 -46 -7 -13 -16 -21 -20 -19 -4 2 -7 -11 -7 -30 0 -30 4 -35 24 -35 30 0 29
-6 -7 -60 -16 -25 -30 -49 -30 -55 0 -5 30 -43 66 -83 37 -40 84 -98 105 -130
41 -60 248 -302 259 -302 3 0 13 22 22 50 l16 50 -30 25 c-22 19 -29 31 -25
48 6 21 5 21 -8 3 -13 -18 -15 -17 -40 13 -15 17 -31 29 -36 25 -9 -5 -14 31
-10 74 1 13 -2 29 -7 35 -5 7 -8 33 -7 60 1 26 -2 50 -7 53 -5 3 -4 12 3 20 9
11 8 14 -7 14 -11 0 -29 9 -42 18 -21 16 -22 20 -8 31 18 16 21 32 5 29 -6 -2
-14 3 -17 11 -2 8 0 11 6 7 11 -6 28 30 23 49 -1 6 3 4 10 -2 10 -10 18 -8 36
9 18 17 22 18 18 6 -5 -13 2 -21 28 -31 41 -18 45 -23 51 -70 2 -20 14 -46 25
-58 12 -13 21 -26 21 -30 0 -4 11 -10 25 -13 16 -4 25 -13 25 -25 0 -11 3 -26
6 -34 3 -8 -2 -21 -10 -30 -9 -9 -16 -22 -16 -29 0 -11 2 -11 9 0 5 8 21 12
37 10 27 -3 30 1 56 66 28 68 28 92 2 82 -8 -3 -14 1 -14 9 0 18 -16 20 -24 3
-5 -10 -7 -10 -12 0 -5 10 -9 10 -20 1 -11 -9 -14 -8 -14 5 0 9 7 19 15 22 8
4 12 10 9 16 -3 5 -12 7 -19 4 -22 -8 -47 28 -39 58 5 20 2 26 -10 26 -9 0
-16 6 -16 13 0 16 -49 65 -82 81 -13 7 -22 20 -21 30 0 9 -1 15 -4 12 -3 -3
-12 2 -20 10 -8 8 -19 11 -25 8 -6 -4 -14 -1 -18 7 -6 9 -12 10 -22 2 -22 -18
-86 -23 -92 -7 -13 34 25 58 46 29 4 -5 8 1 8 14 0 16 -4 22 -15 17 -10 -3
-15 1 -15 13 0 10 -7 21 -15 25 -12 4 -14 0 -9 -22 6 -26 6 -26 -10 -7 -15 19
-17 19 -30 3 -7 -10 -16 -18 -20 -18 -3 0 -6 8 -6 18 0 9 -5 24 -10 32 -7 11
-10 6 -10 -22z m200 -119 c0 -5 -4 -9 -10 -9 -5 0 -10 7 -10 16 0 8 5 12 10 9
6 -3 10 -10 10 -16z m-106 -26 c4 -11 1 -22 -8 -29 -20 -14 -20 -24 -2 -24 25
0 28 -19 7 -45 -17 -23 -20 -24 -24 -8 -3 10 -4 32 -2 48 1 17 3 40 4 53 1 26
16 29 25 5z m112 -70 c-10 -10 -19 5 -10 18 6 11 8 11 12 0 2 -7 1 -15 -2 -18z"/>
<path d="M3776 3046 c-3 -13 2 -45 10 -71 12 -34 14 -53 6 -68 -5 -12 -15 -40
-22 -62 -6 -22 -13 -45 -16 -51 -5 -12 21 -44 36 -44 4 0 14 20 21 45 l13 45
63 0 63 0 -26 73 c-14 39 -38 89 -52 110 -24 36 -27 37 -34 18 -8 -22 -38 -19
-38 4 0 25 -18 25 -24 1z m74 -96 c-20 -13 -33 -13 -25 0 3 6 14 10 23 10 15
0 15 -2 2 -10z"/>
<path d="M2624 3001 c0 -11 5 -17 14 -14 14 6 12 25 -4 30 -5 2 -10 -5 -10
-16z"/>
<path d="M4816 2835 c-20 -20 -21 -35 -1 -35 8 0 15 -6 16 -12 0 -7 5 0 10 17
10 36 -2 52 -25 30z"/>
<path d="M3680 2749 c0 -5 5 -7 10 -4 6 3 10 8 10 11 0 2 -4 4 -10 4 -5 0 -10
-5 -10 -11z"/>
<path d="M4440 2731 c0 -5 7 -11 15 -15 8 -3 15 -1 15 3 0 5 -7 11 -15 15 -8
3 -15 1 -15 -3z"/>
<path d="M4515 2700 c11 -5 27 -9 35 -9 13 -1 13 0 0 9 -8 5 -24 9 -35 9 l-20
0 20 -9z"/>
<path d="M1607 2546 c-5 -15 -6 -31 -3 -34 8 -8 18 25 14 45 -3 13 -6 10 -11
-11z"/>
<path d="M2085 2563 c-68 -10 -201 -46 -237 -64 l-38 -19 0 -516 c0 -347 3
-522 11 -535 14 -28 -6 -52 -38 -44 -18 4 -23 1 -23 -13 0 -27 -11 -34 -29
-20 -10 8 -9 4 3 -9 10 -13 22 -21 25 -18 4 2 7 -5 7 -15 0 -10 -3 -18 -6 -18
-6 1 -39 -11 -60 -21 -8 -5 -17 -17 -19 -27 -3 -15 -1 -16 12 -6 11 10 17 10
22 1 4 -6 3 -14 -3 -18 -15 -9 -10 -62 5 -57 7 3 15 1 18 -3 6 -11 -15 -20
-32 -14 -7 3 -13 11 -13 18 0 14 -27 28 -40 20 -5 -3 -6 -20 -3 -38 3 -23 0
-37 -11 -46 -11 -9 -16 -10 -16 -2 0 6 -5 11 -11 11 -6 0 -9 -9 -6 -19 3 -13
1 -18 -8 -15 -16 6 -27 44 -13 41 6 -1 20 13 31 32 12 19 16 32 10 28 -12 -8
-36 16 -26 26 3 4 1 7 -5 7 -7 0 -12 -4 -12 -10 0 -5 -7 -10 -15 -10 -9 0 -12
6 -9 18 5 14 4 14 -4 2 -6 -8 -8 -18 -6 -22 3 -4 1 -8 -5 -8 -5 0 -12 4 -15 9
-3 5 -16 7 -28 3 -17 -4 -20 -2 -16 15 3 12 1 27 -4 34 -8 11 -9 10 -5 -3 3
-9 -3 -24 -14 -34 -17 -15 -19 -15 -19 -1 0 11 -5 14 -17 10 -9 -4 -14 -2 -10
3 3 6 2 16 -3 24 -7 11 -11 11 -24 1 -9 -8 -16 -20 -16 -28 0 -8 -4 -11 -10
-8 -5 3 -10 1 -10 -4 0 -17 4 -26 12 -24 3 1 9 -4 12 -12 3 -10 -3 -17 -19
-21 -14 -3 -25 -10 -25 -14 0 -20 55 8 61 31 6 21 7 20 8 -9 1 -24 5 -31 14
-26 8 5 8 2 -2 -9 -15 -19 -36 -24 -25 -6 4 8 0 8 -15 0 -11 -7 -21 -17 -21
-23 0 -11 -14 -2 -16 10 0 4 -4 15 -9 26 -5 12 -3 21 5 26 11 7 10 12 -3 25
-21 20 -22 39 -3 32 10 -4 13 -1 9 9 -7 18 -19 18 -27 -1 -3 -8 -15 -15 -26
-15 -11 0 -23 -7 -26 -15 -4 -8 -11 -15 -16 -15 -6 0 -5 6 2 15 7 8 9 15 5 15
-4 0 -2 6 4 14 8 10 9 16 1 21 -5 3 -10 11 -10 17 0 5 8 0 19 -13 16 -20 20
-21 33 -8 13 13 13 16 0 29 -14 13 -15 12 -9 -3 8 -20 -6 -23 -21 -4 -28 33
10 69 46 43 7 -5 12 -4 12 2 0 6 -4 14 -10 17 -5 3 -10 11 -10 16 0 6 7 3 16
-5 14 -14 17 -14 39 0 24 16 24 16 15 -15 l-9 -32 30 28 c30 28 37 39 19 28
-5 -3 -10 -1 -10 5 0 7 8 9 22 5 17 -6 20 -4 15 9 -4 9 -2 16 2 16 5 0 14 -14
20 -30 5 -17 17 -33 25 -36 9 -3 13 -10 10 -15 -3 -5 1 -6 9 -3 19 7 17 115
-2 130 -11 8 -11 15 -2 32 7 13 8 22 2 22 -5 0 -12 -6 -14 -12 -4 -9 -6 -8 -6
2 -1 20 36 53 44 40 4 -6 3 -14 0 -20 -3 -6 1 -7 9 -4 16 6 30 39 23 52 -3 4
1 16 9 27 13 18 14 17 14 -9 0 -23 2 -25 14 -14 8 9 12 28 10 46 -2 18 1 32 6
32 6 0 10 5 10 10 0 6 -6 10 -14 10 -8 0 -18 5 -22 11 -4 8 0 9 15 4 l21 -6 0
365 c0 201 -3 366 -6 366 -3 0 -26 -16 -52 -36 -45 -34 -49 -41 -98 -182 -29
-81 -68 -188 -87 -239 -20 -50 -43 -113 -51 -140 -23 -73 -96 -267 -104 -275
-4 -4 -50 -8 -102 -9 l-95 -2 -44 122 c-44 120 -45 123 -71 117 -22 -4 -30 0
-41 20 -12 23 -18 25 -59 22 -32 -3 -52 1 -72 14 l-27 18 22 24 c24 25 67 52
80 48 4 -1 7 3 7 10 0 9 3 9 11 1 9 -9 15 -8 26 3 12 12 13 23 3 63 -21 87
-24 89 -126 68 -48 -10 -92 -21 -97 -24 -5 -3 -7 -26 -3 -52 3 -25 6 -149 7
-276 1 -126 4 -224 6 -217 3 6 9 10 14 7 5 -3 7 7 5 22 -2 15 -1 22 1 16 2 -7
8 -13 13 -13 5 0 12 -22 16 -50 4 -30 12 -50 19 -50 7 0 18 -7 25 -15 17 -20
31 -9 26 21 -5 26 15 33 44 14 13 -8 13 -10 -1 -10 -9 0 -19 -7 -23 -15 -3 -8
-1 -15 4 -15 6 0 10 5 10 12 0 6 3 8 6 5 4 -4 2 -13 -5 -21 -9 -11 -8 -17 3
-29 8 -8 12 -17 9 -21 -4 -3 1 -6 10 -6 9 0 17 5 17 10 0 6 4 10 9 10 6 0 6
-12 -1 -31 -8 -23 -13 -27 -19 -17 -7 10 -9 9 -9 -4 0 -9 5 -20 11 -24 8 -5 4
-13 -12 -26 -15 -13 -20 -21 -12 -24 9 -4 9 -11 1 -29 -8 -19 -15 -22 -28 -15
-13 7 -20 5 -24 -7 -4 -9 -4 -18 -1 -21 3 -3 5 1 5 8 0 11 3 11 12 2 10 -10
10 -15 -1 -21 -16 -10 -10 -47 7 -43 7 1 12 -8 12 -20 l1 -23 12 23 c12 20 15
21 32 7 25 -18 33 -19 37 -1 2 12 6 12 21 2 19 -15 13 -46 -9 -46 -8 0 -14 -5
-14 -11 0 -5 4 -8 9 -4 6 3 9 -6 8 -21 -1 -18 6 -31 22 -42 24 -16 24 -16 12
6 -11 20 -9 22 13 22 15 0 33 11 45 26 12 15 21 23 21 18 0 -4 7 1 15 12 11
14 15 15 14 4 -4 -40 2 -49 38 -59 20 -6 41 -7 46 -4 6 3 7 1 3 -5 -14 -24 10
-10 33 18 20 24 26 27 35 16 13 -16 88 -27 107 -15 11 6 9 12 -9 29 -12 11
-22 26 -22 33 0 7 -5 4 -11 -7 -9 -14 -8 -20 2 -27 11 -7 11 -9 1 -9 -7 0 -16
8 -19 18 -4 9 -11 20 -17 24 -5 4 2 10 17 13 15 4 27 11 27 16 0 5 8 6 17 2
15 -5 16 -3 6 8 -15 16 -17 49 -3 49 5 0 9 -3 8 -7 -4 -22 17 -43 42 -43 16 0
32 -5 35 -10 5 -8 11 -7 21 1 12 10 13 9 8 -5 -5 -12 -2 -15 10 -10 10 4 18 0
22 -10 3 -9 10 -13 15 -10 5 3 13 -5 18 -18 6 -13 10 -17 10 -10 1 18 21 4 21
-14 0 -8 -4 -12 -10 -9 -5 3 -10 -3 -10 -15 0 -12 -16 -42 -35 -67 -36 -47
-40 -78 -15 -109 7 -7 10 -35 8 -64 -2 -41 0 -51 15 -56 35 -11 13 -50 -32
-57 -13 -2 -32 -18 -43 -35 -18 -28 -18 -33 -4 -38 9 -3 13 -11 9 -18 -3 -6
-2 -8 2 -3 5 4 17 0 27 -10 22 -19 36 -10 18 12 -11 13 -10 14 4 9 12 -5 15
-2 10 10 -5 12 0 15 25 11 17 -2 35 -6 41 -10 5 -3 10 -1 10 5 0 6 5 8 10 5 6
-3 10 1 10 9 0 9 8 16 18 16 17 0 20 -10 23 -62 0 -19 19 -36 19 -19 0 6 7 8
15 5 8 -4 15 -1 15 6 0 7 8 9 19 5 38 -12 61 -14 66 -5 3 5 1 11 -4 14 -5 4
-12 2 -16 -4 -4 -7 -17 -3 -35 10 -31 22 -45 26 -34 9 4 -7 1 -10 -6 -7 -7 2
-14 12 -16 22 -2 13 2 16 14 11 41 -17 51 -16 62 5 7 12 8 20 2 16 -5 -3 -15
1 -22 9 -7 9 -8 15 -2 15 7 0 6 8 -1 24 -11 23 -12 23 -25 5 -26 -38 -62 -17
-40 23 28 49 58 74 58 48 0 -5 -7 -10 -15 -10 -20 0 -19 -16 1 -24 22 -9 24
-8 24 9 0 8 6 15 13 15 15 0 49 38 39 43 -4 2 -27 5 -52 6 -24 1 -46 4 -49 6
-5 5 51 29 62 27 4 -1 7 3 7 10 0 6 7 4 18 -5 29 -27 43 -21 39 16 -2 18 -6
38 -10 44 -4 6 -1 13 5 16 10 3 10 7 0 19 -8 10 -9 19 -3 22 5 3 11 1 13 -6 5
-14 38 -20 38 -7 0 5 4 9 8 9 4 0 9 -19 11 -42 1 -23 4 -45 7 -50 3 -4 -2 -8
-10 -8 -9 0 -17 -8 -17 -17 -1 -10 -2 -22 -4 -28 -1 -5 -3 -18 -3 -27 -1 -10
-7 -18 -13 -18 -6 0 -9 7 -6 14 4 10 1 13 -8 9 -8 -3 -12 -9 -9 -14 3 -5 0 -9
-5 -9 -6 0 -11 -4 -11 -10 0 -5 7 -7 15 -4 8 4 22 1 30 -6 13 -10 15 -8 15 14
0 15 5 25 13 24 6 -2 11 5 10 15 0 10 2 16 5 13 3 -3 12 0 20 7 11 8 14 8 9 0
-4 -6 -1 -13 5 -16 9 -3 7 -10 -7 -21 -11 -8 -15 -16 -8 -16 6 0 25 17 42 38
l30 37 1 -33 0 -33 43 6 c26 4 37 2 28 -3 -8 -6 -11 -17 -7 -30 9 -26 -12 -71
-24 -52 -6 9 -11 9 -21 -3 -12 -13 -17 -13 -36 0 -12 8 -29 16 -38 17 -9 1
-20 9 -25 16 -7 12 -11 12 -25 0 -15 -12 -15 -14 0 -22 8 -5 13 -14 10 -19 -4
-5 -11 -7 -16 -4 -5 3 -6 -1 -3 -9 4 -9 1 -16 -6 -16 -7 0 -10 -7 -6 -15 3
-10 -1 -15 -12 -15 -12 0 -13 -3 -5 -8 9 -6 3 -18 -22 -42 -33 -32 -34 -35
-16 -45 20 -10 27 -24 14 -26 -5 -1 -20 -10 -35 -21 -24 -16 -28 -17 -28 -4 0
15 -16 21 -52 18 -12 -1 -15 3 -11 16 6 15 5 15 -10 3 -9 -7 -17 -24 -17 -37
0 -13 -3 -25 -7 -25 -5 -1 -19 -3 -33 -5 -48 -7 -59 -10 -66 -17 -4 -4 -2 -7
4 -7 7 0 12 -4 12 -10 0 -5 -10 -10 -21 -10 -17 0 -20 -5 -17 -25 4 -21 3 -23
-13 -15 -12 7 -20 6 -24 -1 -4 -6 -14 -8 -22 -5 -8 3 -11 2 -8 -3 3 -5 0 -13
-6 -17 -6 -3 -15 -1 -19 7 -6 9 -11 5 -15 -14 -4 -15 -14 -27 -22 -27 -10 0
-12 -6 -8 -22 6 -17 4 -20 -10 -15 -9 4 -19 7 -21 7 -2 0 -4 7 -4 15 0 8 -3
16 -7 16 -37 7 -59 5 -65 -5 -11 -15 -10 -28 1 -22 5 3 12 -1 15 -9 3 -9 -1
-18 -9 -21 -8 -4 -12 -10 -9 -15 11 -18 -7 -47 -37 -60 -27 -10 -35 -10 -62 6
-18 11 -34 18 -37 16 -2 -1 -6 2 -8 8 -2 6 5 11 15 12 15 0 14 2 -5 12 -19 8
-26 8 -34 -4 -7 -11 -11 -11 -15 -1 -10 24 -22 12 -13 -14 6 -14 6 -23 1 -20
-5 4 -11 2 -13 -3 -1 -5 -15 -13 -31 -16 -22 -6 -26 -4 -21 8 3 8 1 18 -5 22
-6 3 -11 -1 -11 -9 0 -9 -5 -16 -11 -16 -6 0 -8 -8 -5 -17 5 -16 5 -16 -6 -2
-7 9 -19 14 -26 11 -11 -3 -12 0 -2 18 7 12 21 25 31 27 27 7 24 20 -6 25 -21
4 -24 2 -20 -12 3 -11 -1 -20 -11 -24 -19 -7 -37 2 -29 15 4 5 -2 6 -11 2 -14
-5 -16 -3 -11 12 6 15 5 16 -8 5 -19 -16 -19 -1 0 27 9 13 11 23 4 25 -20 7 2
36 24 32 13 -2 16 -1 7 2 -31 15 -38 28 -21 42 12 10 13 15 3 18 -6 3 -10 10
-6 15 9 15 -9 10 -40 -10 -17 -11 -34 -17 -38 -15 -5 3 -15 1 -22 -5 -16 -13
-42 -5 -50 14 -3 9 0 12 8 9 25 -9 25 23 0 60 -17 24 -20 34 -9 30 10 -4 15 0
15 10 0 9 -6 16 -12 17 -7 0 -5 3 4 7 13 5 15 11 8 22 -7 11 -10 11 -10 2 0
-10 -5 -10 -20 -2 -24 13 -27 32 -3 23 12 -5 15 -2 11 8 -4 11 3 14 26 14 17
0 37 -4 45 -9 8 -5 16 -4 22 5 6 10 9 11 9 2 0 -21 27 -15 33 7 3 13 17 22 36
26 18 4 28 11 24 17 -4 6 0 8 10 4 9 -3 18 -1 21 6 3 9 7 9 13 1 10 -13 44
-15 59 -2 7 5 9 19 6 31 -5 20 -4 21 12 7 10 -8 25 -15 33 -16 13 -2 12 0 -1
15 -9 10 -16 24 -16 32 1 10 4 9 14 -4 10 -12 15 -14 18 -6 2 7 10 9 17 5 9
-6 9 -11 1 -21 -13 -16 -2 -25 41 -32 23 -3 28 -1 23 11 -8 22 15 20 32 -1 13
-17 14 -17 8 2 -6 16 -4 18 6 8 18 -17 50 2 50 28 0 16 4 19 18 14 12 -4 11
-1 -6 15 -23 21 -30 36 -12 25 6 -3 10 -1 10 5 0 6 4 9 9 6 5 -3 11 2 13 12 6
22 -22 23 -48 1 -14 -11 -18 -11 -22 -1 -3 10 -8 10 -21 -2 -16 -15 -19 -14
-29 10 -7 14 -10 30 -7 35 3 5 0 7 -7 4 -7 -3 -19 4 -26 15 -10 16 -10 20 2
20 8 0 17 7 20 16 8 22 8 26 -3 20 -5 -3 -18 9 -30 27 -11 17 -21 27 -21 21 0
-5 5 -15 10 -20 12 -12 2 -47 -11 -38 -5 3 -9 -7 -9 -21 0 -18 -4 -24 -12 -19
-7 4 -10 4 -6 0 9 -11 -28 -69 -47 -72 -8 -1 -15 4 -15 12 0 9 -4 12 -10 9 -5
-3 -10 -2 -10 3 0 6 -17 8 -37 5 l-38 -4 30 29 c29 29 30 29 48 11 25 -27 31
-23 10 6 -10 13 -25 23 -33 22 -12 -2 -15 8 -13 41 1 24 -2 40 -8 37 -5 -4 -9
-13 -9 -21 0 -8 -4 -13 -10 -9 -5 3 -16 -8 -25 -25 -8 -16 -22 -30 -31 -30 -8
0 -12 5 -9 10 3 6 2 10 -4 10 -5 0 -13 -9 -16 -21 -4 -11 -9 -18 -12 -16 -8 9
17 47 31 47 8 0 19 7 26 15 10 12 7 15 -16 21 -18 5 -29 3 -32 -4 -2 -8 -9 -7
-19 4 -9 8 -22 13 -30 10 -7 -3 -16 1 -19 9 -7 17 -41 20 -64 5 -11 -7 -12
-10 -2 -10 9 0 11 -7 7 -22 -3 -13 -3 -18 2 -12 12 16 52 24 60 11 3 -7 2 -9
-2 -4 -9 7 -38 -63 -30 -72 3 -2 5 0 5 6 0 15 33 11 43 -5 4 -6 15 -12 22 -12
8 0 15 -4 15 -10 0 -5 -7 -7 -16 -3 -12 4 -14 0 -9 -20 4 -15 2 -28 -6 -33 -9
-5 -11 -2 -6 8 7 20 -3 31 -17 18 -8 -6 -16 -2 -24 11 -12 20 -7 24 26 20 6
-1 12 3 12 9 0 15 -23 12 -46 -6 -13 -10 -15 -17 -7 -20 7 -3 9 -12 6 -20 -3
-8 1 -14 11 -14 9 0 16 -6 16 -12 0 -7 7 -25 14 -40 8 -16 11 -28 5 -28 -5 0
-9 -6 -9 -14 0 -8 -14 -20 -30 -28 -17 -7 -30 -16 -30 -21 0 -13 -80 -87 -95
-87 -7 0 -15 -5 -17 -11 -2 -6 -17 -12 -34 -13 -17 -2 -37 -6 -44 -11 -10 -6
-11 -2 -6 18 5 21 3 26 -13 24 -16 -1 -18 -5 -9 -20 5 -10 8 -20 6 -21 -2 -1
-11 -7 -20 -14 -14 -12 -16 -10 -11 10 3 16 2 19 -5 10 -13 -19 -36 12 -29 40
8 31 -10 58 -38 58 -14 0 -25 5 -25 10 0 6 -7 10 -15 10 -8 0 -15 8 -15 18 0
13 2 14 9 3 5 -8 11 -9 15 -3 5 9 -14 22 -34 22 -5 0 -21 -12 -35 -27 -14 -15
-25 -24 -25 -19 0 5 -6 3 -14 -3 -11 -9 -16 -9 -22 0 -4 8 -3 9 4 5 7 -4 12
-2 12 3 0 6 -6 11 -13 11 -8 0 -22 9 -32 20 -10 11 -22 17 -27 13 -6 -3 -14 1
-19 8 -8 12 -10 12 -18 1 -4 -8 -19 -13 -32 -12 -56 5 -59 3 -59 -45 0 -34 4
-47 18 -52 9 -4 25 -15 34 -26 9 -10 22 -16 27 -12 6 3 15 -5 21 -19 5 -14 17
-26 25 -26 9 0 27 -7 40 -16 14 -9 43 -17 65 -17 22 -1 40 -6 40 -10 0 -4 11
-19 25 -33 14 -14 25 -20 25 -14 0 6 5 8 11 5 6 -4 8 -9 5 -12 -3 -3 0 -11 7
-18 9 -10 14 -9 25 4 12 14 13 12 7 -14 -11 -56 -10 -60 7 -59 10 1 15 -2 12
-8 -3 -5 0 -16 8 -25 11 -15 11 -16 -5 -10 -12 4 -20 1 -24 -11 -4 -9 -10 -20
-15 -23 -15 -10 59 -60 77 -53 15 6 15 4 4 -15 -8 -11 -19 -21 -26 -21 -19 0
-24 -17 -12 -44 l12 -25 594 -1 c559 0 594 1 599 17 3 10 12 32 20 49 8 16 17
52 20 80 7 77 14 101 35 120 19 18 21 18 30 1 13 -23 42 -22 64 3 22 24 35 26
35 5 0 -8 5 -15 11 -15 6 0 10 15 8 33 -4 64 26 81 67 36 21 -24 63 -27 44 -4
-7 9 -10 19 -6 23 8 7 13 8 41 11 8 0 15 7 15 15 0 8 13 20 30 27 16 8 31 23
32 34 2 11 10 19 17 17 8 -2 11 3 8 13 -4 9 -1 15 8 15 7 0 22 11 33 25 22 28
37 33 28 10 -9 -23 6 -17 38 15 16 17 32 30 36 30 4 0 15 -17 24 -38 15 -34
21 -38 47 -34 20 3 35 14 44 33 21 39 29 42 69 22 34 -16 37 -16 56 2 14 13
23 15 33 7 19 -16 57 -10 68 10 13 24 99 26 99 3 0 -8 7 -15 16 -15 8 0 12 -4
9 -10 -3 -5 -1 -10 4 -10 6 0 11 -11 11 -25 0 -20 6 -27 30 -31 17 -4 30 -13
30 -20 0 -8 5 -14 11 -14 6 0 9 9 6 19 -6 26 50 38 72 16 13 -13 13 -17 3 -24
-7 -4 -10 -15 -6 -24 3 -9 11 -14 17 -10 6 4 8 -2 5 -15 -8 -29 43 -84 77 -84
15 0 30 -9 36 -20 8 -15 8 -19 0 -14 -16 10 -13 -10 4 -28 9 -8 12 -22 8 -33
-6 -17 -6 -17 14 0 20 17 21 17 21 -7 0 -14 -4 -23 -9 -20 -5 3 -9 1 -9 -5 0
-17 20 -23 35 -11 17 14 20 3 6 -19 -6 -9 -4 -19 4 -28 18 -18 25 -16 25 4 0
14 3 13 16 -5 8 -12 13 -26 10 -31 -3 -5 9 -15 27 -22 17 -7 37 -20 44 -29 11
-13 12 -13 13 0 0 9 -9 23 -20 33 -25 21 -26 39 -2 35 13 -2 17 4 17 26 0 16
6 31 14 34 8 3 11 0 7 -7 -9 -14 43 8 62 26 17 17 23 16 16 -1 -3 -8 0 -17 6
-21 9 -6 9 -10 -1 -17 -11 -8 -10 -9 3 -5 9 3 24 0 33 -7 15 -11 22 -9 43 11
14 13 29 23 33 23 11 0 0 -61 -14 -77 -7 -10 -4 -13 12 -13 11 0 21 -4 21 -10
0 -5 6 -7 14 -4 8 3 12 12 9 20 -3 8 0 14 6 14 6 0 11 -5 11 -10 0 -6 11 -8
28 -4 29 7 64 43 55 57 -3 5 4 11 16 14 14 3 21 13 21 29 0 17 6 24 20 24 23
0 27 15 5 24 -8 3 -15 12 -15 21 0 18 11 20 27 4 7 -7 12 -3 15 15 4 18 0 26
-14 29 -10 3 -18 13 -18 22 0 11 6 15 18 11 16 -6 19 0 20 40 0 25 5 51 11 57
14 14 14 77 0 77 -7 0 -5 10 5 25 16 24 18 87 3 102 -4 3 -7 23 -7 43 0 20 -5
41 -11 47 -5 5 -12 44 -14 85 -2 41 -11 94 -19 119 -15 46 -28 181 -28 282 0
36 8 76 20 105 12 26 26 94 32 153 10 89 10 119 -4 199 -17 101 -22 113 -32
84 -3 -10 -31 -83 -61 -160 -29 -78 -56 -154 -59 -169 -7 -37 -12 -45 -30 -45
-9 0 -13 -8 -11 -22 2 -12 -2 -33 -10 -47 -7 -14 -13 -32 -13 -40 0 -8 -3 -11
-7 -8 -3 4 -12 2 -19 -4 -10 -8 -17 -7 -29 4 -21 22 -19 64 5 89 21 23 19 38
-3 20 -10 -9 -16 -9 -25 0 -13 13 -46 3 -37 -12 4 -6 12 -7 18 -3 7 4 6 0 -2
-10 -7 -9 -18 -14 -24 -10 -6 4 -8 -2 -5 -15 3 -12 2 -22 -3 -24 -5 -2 -10
-15 -11 -30 -1 -15 -8 -30 -15 -32 -7 -3 -13 -18 -13 -34 0 -16 -7 -35 -15
-42 -17 -14 -20 -46 -5 -55 9 -6 14 7 11 31 -1 6 10 16 24 22 24 11 25 11 14
-9 -8 -16 -8 -23 0 -29 7 -4 9 -15 5 -26 -7 -18 -6 -18 12 1 19 20 45 31 42
18 0 -5 2 -16 7 -26 4 -10 2 -23 -4 -31 -16 -19 -3 -84 19 -96 22 -12 60 -2
60 16 0 19 15 18 34 -2 9 -8 16 -11 16 -6 0 6 10 8 23 4 20 -5 21 -4 7 14 -14
19 -14 19 8 0 12 -11 22 -24 22 -30 0 -6 -5 -4 -10 4 -8 13 -10 13 -10 -2 0
-11 -5 -15 -15 -12 -8 4 -15 1 -15 -4 0 -16 21 -26 29 -13 4 6 16 9 26 7 16
-3 20 2 21 25 1 16 -3 26 -7 23 -5 -3 -6 2 -2 12 5 15 7 15 15 0 5 -9 6 -20 3
-25 -3 -6 2 -14 10 -19 19 -10 39 -85 25 -90 -5 -2 -6 -10 -3 -19 3 -8 0 -19
-8 -24 -11 -7 -11 -9 3 -9 9 0 17 -8 17 -17 0 -10 7 -45 16 -78 25 -92 33
-143 22 -154 -5 -5 -10 -33 -12 -61 -1 -29 -8 -56 -16 -60 -10 -7 -10 -11 0
-24 11 -14 11 -16 -3 -16 -9 0 -16 -6 -15 -12 4 -22 -13 -68 -22 -62 -5 3 -9
-4 -9 -16 0 -26 -47 -51 -59 -31 -6 9 -11 10 -15 2 -4 -6 -5 -14 -2 -19 6 -10
-14 -36 -38 -49 -13 -7 -29 -8 -44 -2 -13 5 -27 7 -32 4 -4 -3 -15 6 -24 20
-13 20 -23 24 -44 20 -15 -2 -32 -11 -38 -20 -6 -8 -14 -12 -17 -8 -4 3 -17
-6 -30 -20 -25 -30 -67 -37 -67 -11 0 8 -5 12 -10 9 -13 -8 -42 14 -34 26 6
10 -10 28 -40 44 -10 6 -18 15 -17 20 2 5 -5 12 -15 15 -10 4 -19 19 -21 34
-3 24 -2 26 16 17 32 -17 51 -13 63 15 9 20 9 27 0 33 -7 4 -10 15 -7 23 4 10
-1 17 -15 21 -11 3 -25 19 -31 36 -8 23 -17 31 -34 31 -18 0 -25 -9 -36 -44
l-13 -43 -24 29 c-14 17 -25 43 -26 61 -1 18 -10 42 -21 55 -15 18 -20 38 -20
87 0 47 2 61 11 54 8 -7 13 -2 16 16 4 21 1 26 -21 31 -14 3 -34 10 -45 15
-13 8 -16 7 -11 -1 4 -6 -6 -23 -21 -37 -18 -16 -30 -21 -32 -14 -3 9 -7 9
-18 0 -11 -9 -20 -9 -39 1 -13 7 -22 17 -19 21 2 4 -11 6 -31 5 -40 -4 -51 7
-46 46 2 21 -1 27 -12 22 -8 -3 -18 -1 -22 5 -3 6 -12 11 -18 11 -7 0 -6 -4 3
-10 10 -6 11 -10 3 -10 -7 0 -13 -7 -13 -15 0 -8 -7 -16 -15 -16 -30 -3 -34
-4 -46 -16 -8 -8 -8 -20 1 -48 11 -33 10 -39 -4 -47 -9 -5 -13 -14 -9 -21 4
-7 0 -6 -10 2 -19 15 -23 26 -6 15 8 -4 9 0 4 15 -4 12 -2 21 4 21 6 0 11 8
11 18 -1 16 -1 16 -14 0 -7 -10 -16 -14 -21 -10 -4 4 -4 -3 -1 -16 6 -17 3
-24 -16 -31 -17 -6 -24 -5 -29 6 -4 12 -12 7 -35 -19 -33 -38 -94 -66 -94 -45
0 7 -4 6 -10 -3 -9 -13 -10 -13 -11 0 -1 8 0 21 1 29 1 9 -4 12 -15 7 -13 -4
-16 -2 -11 9 3 8 2 15 -3 15 -18 0 -20 -45 -3 -64 16 -20 16 -20 0 -7 -10 7
-25 11 -33 7 -8 -3 -25 -2 -37 3 -17 6 -30 3 -50 -12 -22 -17 -30 -18 -43 -7
-8 7 -24 10 -35 7 -31 -8 -43 24 -24 63 9 17 17 57 18 88 1 48 4 58 23 68 13
6 20 14 16 17 -3 4 -1 7 5 7 5 0 12 -4 14 -10 2 -5 14 -11 28 -12 14 -2 27 -9
30 -16 5 -11 9 -10 20 4 8 10 10 15 4 11 -7 -4 -15 0 -18 9 -3 8 -10 13 -15
10 -5 -4 -16 -3 -24 0 -20 7 -16 50 7 72 17 16 17 16 15 -8 -2 -14 4 -36 13
-48 14 -20 19 -22 37 -13 12 7 21 14 21 17 0 3 -5 2 -10 -1 -15 -9 -24 23 -11
39 8 10 9 16 1 21 -5 3 -10 13 -10 21 0 10 5 12 12 8 22 -14 49 -12 44 2 -3 7
-1 16 5 19 5 4 7 10 4 15 -3 4 1 10 9 13 9 4 12 0 9 -13 -3 -10 0 -21 6 -24 7
-5 11 4 11 24 0 17 8 42 17 57 17 25 17 26 -6 18 -21 -6 -23 -4 -19 13 4 12 0
23 -7 26 -9 3 -11 -2 -8 -17 4 -20 3 -21 -10 -5 -8 10 -17 14 -21 10 -5 -4 -7
0 -6 8 4 27 0 41 -10 35 -5 -3 -10 3 -10 14 0 12 7 21 15 21 8 0 15 -4 15 -9
0 -4 17 -7 37 -5 21 1 41 -2 45 -9 5 -8 8 -6 8 6 0 9 5 17 10 17 6 0 10 -9 10
-20 0 -21 15 -27 25 -10 4 6 11 8 16 5 9 -6 43 -15 69 -19 9 -1 21 -5 28 -10
7 -4 12 -2 12 4 0 7 15 9 43 6 29 -4 50 -1 63 8 17 13 21 12 38 -2 18 -16 19
-16 13 2 -6 14 -4 17 9 12 12 -4 15 -2 10 9 -3 9 0 15 8 15 8 0 16 -5 18 -12
3 -7 10 -8 17 -4 10 7 11 10 1 16 -9 6 -3 13 20 25 41 21 94 29 83 12 -4 -7 0
-7 10 2 9 7 17 21 17 29 0 12 3 13 12 4 21 -21 37 -13 46 21 7 25 14 31 31 30
12 -2 20 1 17 6 -3 5 3 11 14 14 10 3 21 0 24 -7 3 -7 8 -6 15 4 6 8 11 11 11
6 0 -5 10 0 23 11 25 23 95 42 168 46 11 1 14 8 11 21 -3 12 -1 17 6 12 13 -8
28 37 17 53 -3 6 -2 11 3 11 5 0 9 14 9 32 0 22 8 38 27 55 15 13 31 21 35 18
10 -5 2 -55 -11 -72 -5 -7 -5 -14 1 -17 7 -5 51 72 51 90 0 1 38 96 85 210 75
182 84 211 76 236 -12 33 -145 185 -170 193 -9 3 -29 24 -46 46 -44 61 -178
109 -298 108 l-56 -1 -77 -132 c-42 -72 -91 -153 -110 -181 l-33 -50 2 -308 2
-307 -107 0 -108 0 0 307 0 307 -96 171 c-53 93 -107 186 -121 206 -13 20 -41
70 -61 110 -40 79 -47 84 -127 72z m67 -155 c-7 -7 -12 -8 -12 -2 0 6 3 14 7
17 3 4 9 5 12 2 2 -3 -1 -11 -7 -17z m643 -328 c3 -5 1 -10 -4 -10 -6 0 -11 5
-11 10 0 6 2 10 4 10 3 0 8 -4 11 -10z m85 -31 c11 -6 8 -8 -11 -9 -15 0 -33
7 -40 16 -12 15 -11 16 11 9 14 -4 32 -11 40 -16z m100 -70 c0 -17 -18 -9 -35
17 l-16 25 25 -16 c14 -10 26 -21 26 -26z m-2253 -106 c-9 -9 -19 -14 -23 -11
-10 10 6 28 24 28 15 0 15 -1 -1 -17z m-42 -3 c3 -5 -1 -10 -10 -10 -9 0 -13
5 -10 10 3 6 8 10 10 10 2 0 7 -4 10 -10z m2288 -27 c4 -7 17 -13 27 -13 11 0
20 -5 20 -10 0 -5 6 -9 12 -7 15 3 21 -60 7 -69 -18 -10 -59 5 -53 20 3 8 1
17 -5 21 -6 3 -11 16 -11 28 -1 20 -2 20 -11 4 -10 -16 -11 -16 -33 0 -20 15
-21 19 -8 34 16 18 42 15 55 -8z m113 -114 c3 -6 1 -16 -6 -22 -10 -9 -11 -9
-5 2 4 8 2 17 -6 22 -9 6 -10 9 -2 9 6 0 15 -5 19 -11z m-1516 -8 c0 -5 -7
-11 -15 -15 -15 -5 -20 5 -8 17 9 10 23 9 23 -2z m-872 -31 c4 -12 3 -13 -10
-3 -8 7 -18 10 -21 6 -4 -3 -7 -1 -7 6 0 17 32 10 38 -9z m73 -7 c-12 -20 -14
-14 -5 12 4 9 9 14 11 11 3 -2 0 -13 -6 -23z m676 7 c3 -11 9 -20 14 -20 5 0
9 -9 9 -19 0 -11 5 -23 11 -26 7 -5 8 5 4 29 -6 29 -4 36 9 36 9 0 16 -7 16
-16 0 -11 6 -15 20 -11 16 4 18 2 10 -13 -14 -27 -12 -34 5 -20 13 11 18 10
30 -6 19 -25 19 -44 0 -44 -8 0 -15 -4 -15 -8 0 -12 -35 -52 -45 -52 -4 0 -5
6 -2 13 6 17 -22 55 -31 42 -4 -6 -24 -11 -44 -12 -29 -1 -38 3 -43 18 -7 20
-25 27 -25 9 0 -19 -17 -10 -28 15 -8 17 -8 25 -1 25 6 0 8 4 5 8 -2 4 0 14 6
22 8 12 9 12 4 -2 -4 -13 0 -18 14 -18 19 0 36 32 26 49 -5 8 9 16 37 20 5 0
11 -8 14 -19z m1668 10 c-3 -5 -11 -10 -16 -10 -6 0 -7 5 -4 10 3 6 11 10 16
10 6 0 7 -4 4 -10z m60 -21 c-5 -15 -4 -19 4 -15 6 4 20 5 30 1 18 -5 18 -7
-2 -30 -15 -16 -24 -20 -29 -12 -6 9 -11 8 -19 -3 -8 -12 -9 -10 -4 8 7 24
-11 56 -26 46 -5 -3 -9 -1 -9 5 0 8 12 13 53 20 5 0 5 -9 2 -20z m-1852 -29
c-3 -12 -8 -19 -11 -16 -5 6 5 36 12 36 2 0 2 -9 -1 -20z m867 -150 c0 -11 -4
-20 -10 -20 -5 0 -10 9 -10 20 0 11 5 20 10 20 6 0 10 -9 10 -20z m-1271 -27
c0 -25 -1 -25 -8 -8 -5 11 -7 23 -4 28 8 14 13 7 12 -20z m111 -51 c-5 -2 -8
-8 -4 -13 8 -13 -20 -11 -34 3 -9 9 -12 9 -12 -2 0 -7 -2 -11 -5 -8 -3 3 -3
13 1 22 6 15 7 15 20 -1 12 -16 13 -15 14 12 1 29 1 29 16 10 9 -12 11 -21 4
-23z m44 -11 c-6 -7 -34 28 -34 42 0 6 9 0 20 -13 11 -13 17 -26 14 -29z m353
3 c-9 -9 -28 6 -21 18 4 6 10 6 17 -1 6 -6 8 -13 4 -17z m-577 -5 c0 -5 -4 -9
-10 -9 -5 0 -10 7 -10 16 0 8 5 12 10 9 6 -3 10 -10 10 -16z m235 -37 c-3 -3
-11 0 -18 7 -9 10 -8 11 6 5 10 -3 15 -9 12 -12z m296 -5 c-10 -9 -11 -8 -5 6
3 10 9 15 12 12 3 -3 0 -11 -7 -18z m2113 -9 c4 -17 2 -28 -4 -28 -5 0 -10 7
-10 16 0 11 -6 14 -22 9 -23 -6 -23 -6 1 15 27 23 26 24 35 -12z m-2620 7 c-4
-8 -10 -12 -15 -9 -5 3 -9 -2 -9 -10 0 -9 -4 -16 -10 -16 -29 0 0 38 37 49 1
1 0 -6 -3 -14z m147 -5 c22 13 26 -2 4 -20 -11 -9 -12 -17 -5 -30 6 -11 7 -21
3 -23 -11 -7 -33 19 -25 28 4 4 -4 5 -18 3 -14 -2 -24 -9 -22 -16 1 -6 -2 -12
-8 -12 -5 0 -10 15 -10 33 0 24 3 28 10 17 8 -13 10 -12 10 3 0 10 4 16 9 12
5 -3 13 0 17 7 6 9 9 9 12 0 2 -8 9 -9 23 -2z m779 0 c0 -5 -7 -7 -15 -4 -8 4
-15 8 -15 10 0 2 7 4 15 4 8 0 15 -4 15 -10z m30 1 c0 -6 -4 -13 -10 -16 -5
-3 -10 1 -10 9 0 9 5 16 10 16 6 0 10 -4 10 -9z m-710 -29 c0 -12 -23 -32 -37
-32 -7 0 -13 7 -13 16 0 8 4 13 9 9 5 -3 12 -1 16 5 7 12 25 13 25 2z m108
-79 c-8 -7 -22 -11 -31 -7 -18 7 -23 24 -7 24 6 0 10 8 11 18 0 14 2 14 8 -3
8 -19 9 -19 17 5 l8 25 4 -24 c2 -13 -3 -30 -10 -38z m2099 35 c-3 -8 -6 -5
-6 6 -1 11 2 17 5 13 3 -3 4 -12 1 -19z m-2439 -17 c12 -10 22 -27 21 -37 0
-18 -1 -18 -9 1 -7 17 -9 14 -11 -15 -1 -24 -3 -28 -6 -12 -2 12 -10 22 -16
22 -7 0 -6 4 3 10 12 7 12 12 2 22 -11 11 -16 28 -9 28 2 0 14 -8 25 -19z m92
-37 c0 -2 -13 -3 -28 -2 -21 1 -28 7 -30 26 l-2 23 30 -21 c17 -12 30 -23 30
-26z m100 24 c0 -18 -2 -20 -9 -8 -6 8 -7 18 -5 22 9 14 14 9 14 -14z m2394 6
c3 -9 1 -23 -5 -32 -7 -13 -9 -13 -6 -2 2 8 0 23 -5 33 -5 10 -5 17 1 17 5 0
12 -7 15 -16z m-1534 -18 c0 -3 -4 -8 -10 -11 -5 -3 -10 -1 -10 4 0 6 5 11 10
11 6 0 10 -2 10 -4z m-20 -48 c0 -5 -4 -8 -10 -8 -5 0 -10 10 -10 23 0 18 2
19 10 7 5 -8 10 -18 10 -22z m196 -22 c18 -18 -1 -80 -22 -72 -8 3 -14 0 -15
-7 0 -9 -2 -9 -5 0 -3 7 -12 9 -20 6 -17 -6 -17 -5 -3 36 9 24 15 30 30 26 14
-5 17 -2 13 9 -8 20 3 21 22 2z m-806 -15 c0 -16 -13 -19 -31 -8 -26 16 -24
25 6 19 14 -2 25 -8 25 -11z m257 -3 c-3 -8 -6 -5 -6 6 -1 11 2 17 5 13 3 -3
4 -12 1 -19z m20 -20 c-3 -8 -6 -5 -6 6 -1 11 2 17 5 13 3 -3 4 -12 1 -19z
m-132 -18 c-3 -5 -11 -10 -16 -10 -6 0 -7 5 -4 10 3 6 11 10 16 10 6 0 7 -4 4
-10z m335 1 c0 -21 -37 -53 -55 -48 -19 5 -19 5 2 12 11 4 23 15 26 26 5 19
27 27 27 10z m346 -16 c-3 -20 -16 -31 -16 -13 0 13 8 28 16 28 1 0 1 -7 0
-15z m-471 -35 c-3 -5 -1 -10 4 -10 6 0 11 -7 11 -16 0 -8 4 -13 8 -10 5 3 9
-1 9 -9 0 -8 -4 -15 -9 -15 -5 0 -6 -5 -3 -10 3 -6 3 -20 0 -31 -5 -16 -12
-19 -31 -15 -18 5 -22 3 -18 -9 4 -8 2 -15 -3 -15 -13 0 -14 43 0 52 6 4 15 2
19 -5 4 -6 11 -8 15 -3 4 5 2 11 -5 13 -6 3 -9 10 -5 16 4 8 1 8 -9 -1 -12
-10 -18 -10 -27 2 -6 8 -21 12 -31 9 -12 -3 -20 0 -20 7 0 7 7 10 16 6 11 -4
15 -2 11 7 -3 8 4 13 22 12 14 0 26 6 27 13 2 20 4 22 15 22 5 0 7 -4 4 -10z
m146 -7 c-25 -44 -31 -49 -29 -23 3 24 15 40 31 40 4 0 3 -8 -2 -17z m79 -39
c0 -2 -7 -4 -15 -4 -8 0 -15 4 -15 10 0 5 7 7 15 4 8 -4 15 -8 15 -10z m-357
-12 c-10 -7 -17 -15 -15 -17 5 -11 1 -25 -8 -25 -5 0 -10 7 -10 16 0 9 -8 22
-17 29 -14 11 -10 12 25 11 38 -1 41 -2 25 -14z m205 -57 c8 -7 -24 -45 -38
-46 -12 0 -12 -2 -1 -6 11 -5 11 -7 0 -14 -10 -6 -11 -9 -1 -9 6 0 12 -4 12
-9 0 -13 -41 -10 -60 3 -13 10 -13 9 -1 -6 10 -14 11 -21 2 -32 -8 -10 -9 -16
-1 -21 13 -8 3 -25 -16 -25 -17 0 -19 37 -2 42 10 4 9 11 -3 29 -16 23 -15 24
25 42 23 11 36 21 29 24 -22 8 9 44 32 37 11 -4 21 -8 23 -9z m410 -40 c-3 -3
-9 2 -12 12 -6 14 -5 15 5 6 7 -7 10 -15 7 -18z m-1388 -88 c12 -4 11 -6 -3
-6 -10 -1 -15 -5 -12 -11 3 -6 -4 -9 -19 -8 -25 2 -26 18 -1 18 9 0 12 6 9 18
-4 10 -3 13 3 6 4 -6 15 -14 23 -17z m780 8 c0 -8 -4 -15 -10 -15 -5 0 -10 7
-10 15 0 8 5 15 10 15 6 0 10 -7 10 -15z m-6 -56 c5 -5 15 -24 21 -42 10 -29
9 -40 -6 -68 l-17 -33 -29 30 c-15 17 -37 48 -48 68 -20 37 -20 38 -1 51 19
14 62 11 80 -6z m-434 -60 c0 -6 -4 -7 -10 -4 -5 3 -10 11 -10 16 0 6 5 7 10
4 6 -3 10 -11 10 -16z m-160 -19 c0 -5 -5 -10 -11 -10 -5 0 -7 5 -4 10 3 6 8
10 11 10 2 0 4 -4 4 -10z m1784 -2 c-5 -8 -2 -9 9 -5 10 3 17 2 17 -3 0 -6
-16 -10 -35 -10 -40 0 -45 7 -12 20 29 12 29 12 21 -2z m-159 -17 c-3 -6 -11
-11 -16 -11 -5 0 -4 6 3 14 14 16 24 13 13 -3z m-1471 -23 c-5 -8 -2 -9 9 -5
14 5 15 3 5 -13 -14 -22 -38 -34 -38 -19 0 13 19 49 26 49 3 0 2 -5 -2 -12z
m76 -18 c0 -17 -3 -19 -19 -11 -10 6 -22 7 -26 3 -5 -4 -5 -1 -1 6 5 7 14 11
22 8 8 -3 14 -1 14 4 0 6 2 10 5 10 3 0 5 -9 5 -20z m1630 -27 c0 -8 4 -12 8
-9 5 3 9 -1 9 -8 0 -8 -18 -20 -40 -27 -37 -12 -40 -12 -57 11 -10 14 -16 27
-13 30 3 3 8 -1 10 -7 3 -7 11 -13 19 -13 9 0 13 4 9 9 -6 11 19 28 41 28 8 0
14 -7 14 -14z m-1173 -36 c-1 -17 -2 -17 -14 -2 -7 10 -17 14 -24 9 -7 -4 -10
-3 -5 4 11 18 45 10 43 -11z m-812 -17 c3 -5 -1 -10 -9 -10 -8 0 -18 5 -21 10
-3 6 1 10 9 10 8 0 18 -4 21 -10z m1090 -20 c-3 -5 3 -10 13 -10 24 0 37 -26
17 -34 -14 -5 -48 37 -38 48 10 10 15 7 8 -4z m-151 -66 c4 -9 4 -19 1 -22 -3
-3 -5 0 -5 6 0 7 -5 11 -11 10 -6 -2 -14 3 -16 10 -3 6 2 12 10 12 8 0 18 -7
21 -16z m-1256 -59 c-3 -3 -9 2 -12 12 -6 14 -5 15 5 6 7 -7 10 -15 7 -18z
m1137 -5 c3 -5 1 -10 -4 -10 -6 0 -11 5 -11 10 0 6 2 10 4 10 3 0 8 -4 11 -10z
m-1145 -20 c17 0 23 -27 7 -33 -13 -4 -48 34 -41 45 6 9 9 9 12 0 2 -7 12 -12
22 -12z m3025 -239 c-4 -23 -10 -41 -15 -41 -12 0 -19 38 -13 76 5 31 8 34 20
21 11 -11 13 -26 8 -56z"/>
<path d="M1410 1634 c0 -23 2 -24 15 -10 8 8 15 17 15 19 0 3 -7 7 -15 11 -11
4 -15 -2 -15 -20z"/>
<path d="M2060 1140 c0 -5 5 -10 10 -10 6 0 10 5 10 10 0 6 -4 10 -10 10 -5 0
-10 -4 -10 -10z"/>
<path d="M2403 2563 c3 -5 35 -57 72 -118 37 -60 71 -109 77 -107 6 1 16 -3
24 -9 11 -9 18 -8 31 2 14 12 16 12 11 -1 -2 -8 -17 -16 -31 -18 -15 -2 -27
-6 -27 -9 0 -3 14 -30 31 -60 l31 -54 68 108 c48 76 65 112 58 120 -14 18 -86
53 -108 53 -10 0 -22 5 -25 10 -10 15 -80 49 -147 71 -68 21 -71 22 -65 12z"/>
<path d="M3901 2537 c-55 -138 -66 -204 -31 -182 7 4 13 -1 17 -14 3 -11 10
-18 16 -14 6 4 8 0 5 -9 -5 -11 1 -14 23 -13 17 1 33 -3 36 -8 3 -6 1 -7 -4
-4 -9 6 -23 -12 -23 -29 0 -10 21 -3 40 13 28 24 25 58 -15 168 -47 130 -48
132 -64 92z m44 -206 c3 -5 1 -12 -5 -16 -5 -3 -10 1 -10 9 0 18 6 21 15 7z"/>
<path d="M639 2409 l-4 -147 55 -5 c30 -2 56 -4 57 -3 2 1 -62 185 -99 286 -3
8 -7 -51 -9 -131z"/>
<path d="M5000 2441 c0 -4 -21 -16 -46 -26 -26 -10 -55 -26 -65 -36 -11 -11
-32 -19 -49 -19 -29 0 -30 -1 -30 -50 l0 -50 -35 0 c-23 0 -38 -6 -42 -16 -3
-8 -11 -13 -17 -11 -7 3 -20 -1 -31 -9 -10 -8 -27 -14 -38 -14 -14 0 -17 -5
-12 -17 17 -46 16 -69 -4 -87 -19 -17 -21 -17 -21 -3 0 50 -66 -20 -76 -80 -4
-29 -12 -43 -25 -46 -12 -3 -19 0 -19 10 0 8 -4 11 -10 8 -17 -11 -11 -23 36
-72 25 -26 55 -68 66 -93 12 -25 45 -73 75 -107 53 -60 54 -62 55 -126 1 -77
-14 -103 -75 -132 -33 -16 -42 -26 -42 -45 0 -20 -6 -26 -32 -30 -17 -3 -44
-17 -60 -32 -15 -15 -49 -47 -75 -72 -26 -25 -49 -57 -53 -75 -4 -21 -26 -46
-72 -83 -158 -127 -158 -127 -162 -10 -2 61 -1 63 30 80 61 32 75 53 82 120 4
34 14 73 22 86 14 21 13 28 -10 89 -19 51 -26 94 -31 179 -3 62 -9 117 -14
122 -14 14 -84 -8 -95 -30 -9 -18 -11 -18 -27 -2 -16 16 -16 17 0 21 9 2 -15
4 -55 5 -58 1 -74 -2 -83 -16 -11 -16 -11 -16 -6 1 6 20 -5 22 -22 5 -9 -9
-12 -9 -12 0 0 7 -7 12 -16 12 -8 0 -13 -4 -10 -9 3 -5 -1 -14 -9 -21 -13 -11
-14 -10 -10 3 8 20 -15 34 -26 16 -5 -8 -4 -15 1 -17 6 -2 8 -7 5 -12 -3 -5 2
-15 11 -24 8 -9 12 -20 9 -26 -3 -5 2 -10 12 -10 15 0 18 -7 17 -36 -3 -46 -8
-50 -33 -25 -16 16 -26 19 -45 11 -26 -10 -36 -5 -36 19 0 12 2 13 8 4 7 -10
12 -10 26 0 16 12 16 14 2 26 -9 8 -16 9 -16 4 0 -12 -48 -15 -55 -3 -3 6 -1
10 5 10 7 0 10 7 6 15 -3 9 0 15 8 15 7 0 13 6 13 13 0 6 4 19 7 28 6 14 0 18
-34 21 l-42 4 8 -66 c10 -77 7 -182 -7 -217 -5 -13 -9 -66 -10 -116 -1 -155
-11 -205 -44 -231 -26 -21 -29 -29 -28 -77 1 -33 9 -69 22 -94 12 -21 21 -54
21 -72 0 -17 5 -35 10 -38 6 -3 10 -12 10 -20 0 -8 14 -37 30 -65 17 -28 30
-59 30 -70 0 -10 4 -21 9 -25 5 -3 12 -18 16 -34 3 -16 19 -43 35 -61 16 -18
32 -43 36 -54 6 -24 69 -157 122 -263 l37 -72 -18 -31 c-18 -30 -57 -152 -57
-177 0 -10 83 -13 388 -12 213 1 376 4 362 6 -14 3 -47 26 -75 52 -75 71 -150
115 -215 127 -31 5 -39 14 -74 77 -22 40 -40 80 -41 89 -2 18 -52 68 -68 68
-5 0 -5 5 -1 11 4 8 -1 9 -17 4 -13 -4 -26 -7 -29 -7 -21 0 -30 3 -30 12 0 12
55 62 78 72 10 4 3 6 -17 5 -29 -2 -36 2 -41 23 -5 21 -7 22 -13 7 -10 -28
-23 -20 -20 13 2 17 4 44 6 60 4 35 1 36 -26 12 -13 -10 -17 -11 -12 -3 6 11
4 13 -10 7 -15 -5 -16 -4 -5 9 10 12 10 15 -1 15 -12 0 -12 2 0 9 9 6 10 11 2
15 -6 4 -15 4 -21 1 -18 -11 -11 3 15 31 33 36 32 50 -7 75 -18 12 -26 19 -17
16 11 -4 20 3 28 20 15 32 5 63 -20 63 -12 0 -19 7 -19 20 0 14 7 20 21 20 13
0 20 6 18 18 -3 30 1 37 12 22 8 -11 9 -8 4 13 -3 18 -2 26 4 23 5 -4 13 3 16
15 6 19 8 19 19 3 9 -11 21 -15 39 -12 15 3 27 2 27 -3 0 -9 42 8 78 31 12 8
22 23 22 34 0 25 40 58 59 50 9 -3 25 -9 36 -12 18 -4 18 -3 -4 21 -22 24 -23
42 -3 42 14 0 49 31 66 58 17 25 46 41 31 16 -4 -6 2 -5 14 3 12 7 21 16 21
20 0 4 7 5 15 2 8 -4 17 1 21 10 4 11 13 15 28 11 16 -5 18 -4 6 4 -12 8 -8
13 22 26 21 8 42 15 48 15 5 0 10 5 10 11 0 6 7 9 15 5 8 -3 15 0 15 7 0 7 9
18 19 24 11 7 22 25 25 40 7 31 47 64 54 44 2 -6 8 -9 13 -5 5 3 9 0 9 -5 0
-12 29 -14 54 -5 9 3 13 11 9 18 -7 11 -9 16 -11 48 -1 12 -7 15 -18 11 -14
-5 -15 -3 -5 15 11 21 51 49 51 36 0 -3 7 -1 15 6 12 10 20 9 40 -4 22 -15 38
-35 16 -22 -14 9 -22 -37 -8 -47 9 -7 9 -10 0 -14 -7 -2 -13 -10 -13 -16 0 -6
13 1 28 16 34 33 42 34 41 5 0 -22 -1 -22 -9 -3 -9 21 -9 21 -15 -8 -2 -9 -14
-26 -26 -36 -13 -10 -23 -30 -24 -47 -1 -16 -5 -37 -9 -47 -7 -14 -11 -15 -25
-5 -11 8 -10 5 3 -10 11 -12 14 -22 9 -22 -6 0 -16 -13 -23 -29 -7 -19 -17
-28 -26 -24 -10 4 -12 0 -8 -11 8 -21 -14 -48 -35 -41 -12 3 -17 -1 -17 -14 0
-11 4 -17 9 -14 14 9 27 -19 20 -45 -4 -18 -2 -21 13 -15 18 6 18 5 -1 -17
l-20 -23 23 5 c12 4 22 2 22 -4 0 -6 7 -7 16 -4 14 6 15 4 4 -10 -11 -13 -11
-17 -1 -24 8 -4 10 -13 6 -19 -5 -8 1 -10 19 -5 22 5 25 3 20 -10 -4 -9 -3
-16 2 -15 20 3 24 -2 14 -20 -7 -13 -7 -22 0 -26 5 -3 10 -13 10 -22 0 -11 -3
-13 -13 -5 -10 8 -13 5 -15 -15 -1 -18 2 -24 13 -19 25 9 27 -13 1 -26 -21
-11 -23 -15 -11 -31 8 -12 15 -14 20 -8 3 6 1 11 -5 11 -6 0 -9 4 -6 8 9 16
76 -1 76 -19 0 -4 -11 -20 -25 -35 -14 -15 -25 -32 -25 -38 0 -6 7 -2 15 8 13
17 19 16 17 -4 0 -3 7 -6 17 -7 14 -1 17 4 13 24 -3 18 -1 24 7 19 8 -6 11 85
10 366 0 209 -5 364 -9 353 -6 -13 -9 -15 -9 -5 -1 8 -13 26 -27 39 -22 21
-23 26 -9 33 8 5 12 14 9 20 -4 6 -1 9 7 6 37 -12 39 10 39 410 0 215 -3 397
-6 406 -6 16 -54 23 -54 7z m-10 -346 c-7 -9 -15 -13 -17 -11 -7 7 7 26 19 26
6 0 6 -6 -2 -15z m34 -60 c3 -8 1 -15 -4 -15 -6 0 -10 7 -10 15 0 8 2 15 4 15
2 0 6 -7 10 -15z m-254 -61 c0 -12 -2 -12 -14 -2 -8 7 -12 16 -9 21 7 11 23
-2 23 -19z m-43 -11 c-27 -7 -10 -22 19 -17 21 4 25 2 20 -11 -4 -12 -2 -14
13 -6 10 6 21 8 24 5 3 -3 4 3 4 12 -2 13 6 19 26 20 15 2 27 -2 27 -9 0 -8 3
-8 9 1 5 8 7 0 6 -21 -3 -40 -35 -80 -57 -72 -20 8 -33 -25 -16 -37 9 -6 7 -8
-7 -6 -11 2 -25 10 -32 18 -7 8 -13 11 -13 6 0 -5 -7 -3 -15 4 -9 7 -13 21 -9
35 3 13 1 26 -5 29 -6 4 -11 -1 -12 -11 0 -12 -4 -9 -11 10 -11 31 3 58 31 56
13 -1 13 -2 -2 -6z m-52 -12 c3 -5 1 -12 -5 -16 -5 -3 -10 1 -10 9 0 18 6 21
15 7z m195 -99 c0 -13 -12 -22 -22 -16 -10 6 -1 24 13 24 5 0 9 -4 9 -8z
m-160 -42 c0 -5 -2 -10 -4 -10 -3 0 -8 5 -11 10 -3 6 -1 10 4 10 6 0 11 -4 11
-10z m-670 -39 c0 -5 -9 -11 -19 -14 -14 -3 -18 -1 -14 9 6 15 33 19 33 5z
m-100 -21 c13 -9 13 -11 0 -19 -17 -12 -30 -5 -30 15 0 16 9 18 30 4z m160 0
c0 -5 -2 -10 -4 -10 -3 0 -8 5 -11 10 -3 6 -1 10 4 10 6 0 11 -4 11 -10z m-63
-22 c-3 -8 -6 -5 -6 6 -1 11 2 17 5 13 3 -3 4 -12 1 -19z m123 -38 c0 -5 3
-17 6 -27 5 -15 4 -15 -5 -3 -9 13 -11 12 -11 -5 0 -16 -2 -17 -10 -5 -14 23
-24 3 -12 -25 8 -16 8 -26 1 -31 -6 -3 -8 -11 -6 -18 3 -8 -7 -12 -29 -13 -31
-1 -34 1 -32 26 2 23 6 27 28 25 23 -2 24 -2 6 11 -14 11 -17 22 -12 47 6 32
8 34 41 30 19 -2 35 -8 35 -12z m7 -86 c-9 -9 -28 6 -21 18 4 6 10 6 17 -1 6
-6 8 -13 4 -17z m-324 10 c9 -9 -16 -44 -30 -44 -14 0 -18 32 -6 43 8 9 28 9
36 1z m-45 -133 c-6 -11 -18 -17 -26 -13 -12 4 -12 8 4 19 26 19 36 16 22 -6z
m1173 -44 c-10 -9 -11 -8 -5 6 3 10 9 15 12 12 3 -3 0 -11 -7 -18z m-1036
-107 c3 -5 -1 -10 -9 -10 -9 0 -16 5 -16 10 0 6 4 10 9 10 6 0 13 -4 16 -10z
m1015 -171 c0 -5 -6 -7 -12 -3 -9 5 -8 2 1 -9 18 -23 8 -33 -12 -13 -11 11
-17 12 -19 4 -3 -7 -10 -8 -17 -3 -10 6 -6 11 15 21 37 16 44 16 44 3z m-1126
-95 c6 -15 4 -15 -11 -3 -10 7 -20 15 -22 16 -2 2 3 3 11 3 9 0 19 -7 22 -16z
m-31 -88 c6 -15 -1 -26 -15 -26 -4 0 -8 9 -8 20 0 23 15 27 23 6z m154 -188
c1 -26 -1 -29 -7 -13 -6 17 -3 45 5 45 1 0 2 -15 2 -32z m43 -68 c0 -5 -7 -7
-15 -4 -8 4 -15 8 -15 10 0 2 7 4 15 4 8 0 15 -4 15 -10z m40 -20 c0 -5 -2
-10 -4 -10 -3 0 -8 5 -11 10 -3 6 -1 10 4 10 6 0 11 -4 11 -10z m0 -54 c0 -2
-7 -7 -16 -10 -8 -3 -12 -2 -9 4 6 10 25 14 25 6z m115 -164 c-3 -7 -5 -18 -5
-23 0 -18 -16 -8 -33 20 -20 34 -14 44 19 29 15 -7 23 -17 19 -26z m185 -248
c0 -8 -4 -12 -10 -9 -5 3 -10 10 -10 16 0 5 5 9 10 9 6 0 10 -7 10 -16z"/>
<path d="M3815 1600 c3 -5 8 -10 11 -10 2 0 4 5 4 10 0 6 -5 10 -11 10 -5 0
-7 -4 -4 -10z"/>
<path d="M4350 2371 c0 -6 4 -13 10 -16 6 -3 7 1 4 9 -7 18 -14 21 -14 7z"/>
<path d="M4024 2239 c-3 -6 -1 -16 5 -22 8 -8 11 -5 11 11 0 24 -5 28 -16 11z"/>
<path d="M3398 2219 c-27 -15 -21 -29 12 -29 32 0 33 1 24 24 -7 18 -12 19
-36 5z"/>
<path d="M3980 2210 c0 -5 5 -10 10 -10 6 0 10 5 10 10 0 6 -4 10 -10 10 -5 0
-10 -4 -10 -10z"/>
<path d="M4050 2167 c0 -19 16 -31 24 -18 3 5 -1 14 -9 21 -12 10 -15 10 -15
-3z"/>
<path d="M1279 2166 c-2 -3 -25 -7 -49 -10 -68 -8 -161 -35 -191 -54 l-26 -17
44 -120 c24 -66 48 -122 53 -123 6 -2 17 -11 26 -19 11 -12 12 -18 4 -23 -8
-5 -10 -19 -5 -40 7 -31 8 -30 40 51 18 46 53 138 78 204 25 66 49 128 52 138
5 11 2 17 -7 17 -8 0 -17 -2 -19 -4z"/>
<path d="M3918 2162 c-16 -2 -28 -7 -28 -11 0 -5 -11 -6 -25 -3 -22 4 -25 1
-25 -22 0 -14 -5 -26 -11 -26 -8 0 -7 -5 1 -15 11 -14 15 -13 28 6 9 13 21 19
33 16 14 -4 19 0 19 14 0 23 13 24 35 3 19 -19 21 -18 30 18 7 29 10 28 -57
20z"/>
<path d="M3995 2160 c-3 -5 -1 -10 4 -10 6 0 11 5 11 10 0 6 -2 10 -4 10 -3 0
-8 -4 -11 -10z"/>
<path d="M3980 2109 c0 -4 5 -11 10 -14 16 -10 0 -27 -18 -20 -8 3 -19 0 -24
-7 -11 -18 -10 -30 2 -23 6 3 10 -2 10 -12 0 -14 2 -15 9 -4 5 7 13 11 19 7 6
-3 17 0 25 8 16 16 27 11 27 -11 0 -7 -7 -13 -16 -13 -8 0 -20 -13 -25 -30 -6
-16 -15 -27 -20 -24 -5 3 -9 0 -9 -5 0 -7 35 -11 95 -11 l95 0 -14 33 c-45
105 -48 109 -85 100 -20 -5 -23 -3 -18 11 4 9 1 17 -6 17 -7 1 -22 3 -34 4
-13 1 -23 -1 -23 -6z m123 -79 c-6 -22 -18 -26 -29 -9 -3 6 0 15 7 20 22 14
28 11 22 -11z"/>
<path d="M4420 2091 c0 -5 7 -14 15 -21 16 -14 18 -10 9 14 -6 17 -24 22 -24
7z"/>
<path d="M3800 2065 c-7 -8 -16 -13 -20 -10 -4 2 -16 -2 -26 -9 -13 -10 -23
-11 -31 -5 -8 7 -15 4 -23 -11 -12 -22 -10 -87 3 -82 4 1 28 2 53 2 30 0 43 4
38 11 -4 8 0 9 15 4 13 -4 21 -2 21 6 0 6 7 17 16 23 11 8 13 20 9 39 -9 35
-38 52 -55 32z"/>
<path d="M76 2060 c-21 -4 -47 -5 -58 -3 -17 5 -18 -3 -18 -105 0 -78 4 -112
13 -116 9 -5 9 -7 0 -12 -7 -3 -13 -10 -13 -15 0 -6 5 -7 10 -4 19 11 30 -5
18 -25 -7 -11 -9 -22 -6 -25 12 -12 48 16 48 36 0 11 5 17 10 14 6 -3 10 3 10
13 0 16 5 19 23 14 20 -5 21 -4 8 11 -15 19 -16 18 44 21 17 0 39 9 49 18 20
19 36 15 36 -7 0 -9 6 -12 15 -9 10 4 15 0 15 -11 0 -9 -4 -14 -9 -10 -5 3
-12 2 -15 -3 -2 -4 6 -8 20 -8 13 0 24 5 24 11 0 6 9 11 20 11 11 0 20 -4 20
-8 0 -12 74 -6 82 6 5 7 8 7 8 -1 0 -7 7 -13 15 -13 12 0 15 14 15 69 l0 70
-54 15 c-30 9 -59 16 -65 16 -6 0 -11 4 -11 8 0 5 -22 18 -48 30 -50 23 -127
27 -206 12z"/>
<path d="M100 1804 c0 -8 5 -12 10 -9 6 4 8 11 5 16 -9 14 -15 11 -15 -7z"/>
<path d="M877 1779 c7 -7 15 -10 18 -7 3 3 -2 9 -12 12 -14 6 -15 5 -6 -5z"/>
<path d="M436 1716 c11 -37 24 -42 24 -10 0 21 -5 31 -15 31 -11 0 -13 -6 -9
-21z"/>
<path d="M335 1680 c3 -5 8 -10 11 -10 2 0 4 5 4 10 0 6 -5 10 -11 10 -5 0 -7
-4 -4 -10z"/>
<path d="M432 1645 l-22 -25 23 4 c13 2 23 11 25 24 4 28 0 28 -26 -3z"/>
<path d="M1 1584 c0 -11 3 -14 6 -6 3 7 2 16 -1 19 -3 4 -6 -2 -5 -13z"/>
<path d="M16 1504 c-12 -11 -16 -36 -16 -94 0 -86 10 -100 61 -82 34 12 59 4
59 -20 0 -17 2 -18 15 -8 8 7 15 19 15 26 0 8 3 14 8 14 14 0 0 81 -14 87 -10
3 -12 13 -8 26 6 20 6 20 -11 3 -13 -13 -15 -20 -6 -29 6 -6 11 -22 11 -36 0
-19 -3 -22 -12 -13 -17 17 -38 15 -38 -3 0 -8 -7 -15 -15 -15 -8 0 -15 -7 -15
-15 0 -13 -4 -14 -22 -3 -20 10 -21 13 -5 16 20 4 22 18 4 26 -6 3 -2 3 10 0
18 -4 23 -1 23 14 0 12 -6 19 -16 18 -9 0 -19 6 -21 14 -4 13 -3 13 6 0 6 -8
11 -10 11 -4 0 5 -5 15 -11 21 -9 9 -8 18 4 37 19 29 6 44 -17 20z"/>
<path d="M1593 1433 c-13 -28 -2 -73 19 -73 9 0 8 3 -2 10 -11 8 -8 9 13 4 17
-4 27 -2 27 5 0 6 -6 11 -14 11 -16 0 -28 24 -20 44 10 25 -11 25 -23 -1z"/>
<path d="M1552 1428 c-7 -7 -12 -16 -12 -21 0 -5 7 -1 16 8 9 9 14 18 12 20
-2 3 -10 -1 -16 -7z"/>
<path d="M580 1375 c-6 -8 -10 -19 -8 -24 1 -6 8 1 15 14 13 28 11 31 -7 10z"/>
<path d="M3381 1374 c-20 -23 -9 -25 19 -4 16 13 20 20 10 19 -8 0 -21 -7 -29
-15z"/>
<path d="M1636 1337 c4 -12 8 -31 9 -42 2 -25 30 -32 32 -8 1 10 5 30 8 44 6
24 4 26 -25 27 -27 1 -30 -2 -24 -21z"/>
<path d="M4861 1346 c-9 -11 -8 -15 4 -20 10 -4 14 -2 9 5 -4 6 0 15 7 20 8 5
9 9 3 9 -6 0 -17 -6 -23 -14z"/>
<path d="M1700 1325 c0 -8 2 -15 4 -15 2 0 6 7 10 15 3 8 1 15 -4 15 -6 0 -10
-7 -10 -15z"/>
<path d="M690 1325 c0 -3 9 -14 20 -25 15 -15 20 -16 20 -5 0 8 -9 19 -20 25
-11 6 -20 8 -20 5z"/>
<path d="M3181 1314 c0 -11 3 -14 6 -6 3 7 2 16 -1 19 -3 4 -6 -2 -5 -13z"/>
<path d="M560 1306 c0 -9 5 -16 10 -16 6 0 10 4 10 9 0 6 -4 13 -10 16 -5 3
-10 -1 -10 -9z"/>
<path d="M750 1310 c0 -5 7 -10 16 -10 8 0 12 5 9 10 -3 6 -10 10 -16 10 -5 0
-9 -4 -9 -10z"/>
<path d="M90 1295 c-8 -9 -8 -15 -2 -15 12 0 26 19 19 26 -2 2 -10 -2 -17 -11z"/>
<path d="M170 1280 c-13 -8 -12 -10 3 -10 9 0 17 5 17 10 0 12 -1 12 -20 0z"/>
<path d="M1575 1279 c-11 -17 1 -21 15 -4 8 9 8 15 2 15 -6 0 -14 -5 -17 -11z"/>
<path d="M2 1260 c0 -14 2 -19 5 -12 2 6 2 18 0 25 -3 6 -5 1 -5 -13z"/>
<path d="M703 1248 c-1 -21 3 -38 8 -38 5 0 9 5 9 10 0 6 8 10 18 11 14 0 13
2 -5 11 -12 6 -24 18 -26 27 -2 9 -4 -1 -4 -21z"/>
<path d="M1326 1255 c4 -8 10 -15 15 -15 4 0 6 7 3 15 -4 8 -10 15 -15 15 -4
0 -6 -7 -3 -15z"/>
<path d="M1590 1254 c0 -14 3 -15 18 -3 9 7 19 15 21 16 2 2 -5 3 -17 3 -14 0
-22 -6 -22 -16z"/>
<path d="M1640 1209 c0 -5 5 -7 10 -4 6 3 10 8 10 11 0 2 -4 4 -10 4 -5 0 -10
-5 -10 -11z"/>
<path d="M0 1145 c0 -9 6 -12 15 -9 8 4 12 10 9 15 -8 14 -24 10 -24 -6z"/>
<path d="M2955 1150 c3 -5 8 -10 11 -10 2 0 4 5 4 10 0 6 -5 10 -11 10 -5 0
-7 -4 -4 -10z"/>
<path d="M696 1124 c-4 -14 -5 -29 -1 -32 3 -3 5 0 5 6 0 7 7 12 15 12 19 0
19 14 1 29 -11 9 -15 6 -20 -15z"/>
<path d="M2265 1121 c-3 -5 -1 -12 5 -16 5 -3 10 1 10 9 0 18 -6 21 -15 7z"/>
<path d="M2350 1119 c0 -6 4 -8 9 -5 5 3 8 -5 7 -19 0 -15 -6 -23 -13 -21 -7
3 -15 1 -18 -5 -4 -5 -1 -8 7 -7 7 2 12 -3 10 -10 -1 -7 4 -21 11 -32 11 -16
13 -13 13 26 0 32 5 48 19 59 11 8 18 15 15 15 -35 7 -60 7 -60 -1z"/>
<path d="M2880 1111 c0 -8 19 -37 21 -31 0 3 2 12 4 21 1 9 -4 16 -11 16 -8 0
-14 -3 -14 -6z"/>
<path d="M60 1089 c0 -5 5 -7 10 -4 6 3 10 8 10 11 0 2 -4 4 -10 4 -5 0 -10
-5 -10 -11z"/>
<path d="M2645 1090 c-3 -6 1 -7 9 -4 18 7 21 14 7 14 -6 0 -13 -4 -16 -10z"/>
<path d="M470 1070 c0 -5 5 -10 11 -10 5 0 7 5 4 10 -3 6 -8 10 -11 10 -2 0
-4 -4 -4 -10z"/>
<path d="M373 1050 c-1 -12 4 -20 13 -20 12 0 12 4 4 20 -6 11 -12 20 -13 20
-2 0 -3 -9 -4 -20z"/>
<path d="M625 1060 c-3 -5 1 -10 10 -10 9 0 13 5 10 10 -3 6 -8 10 -10 10 -2
0 -7 -4 -10 -10z"/>
<path d="M2937 1039 c-3 -13 -1 -19 6 -16 15 5 22 37 9 37 -5 0 -12 -9 -15
-21z"/>
<path d="M2297 1037 c-6 -15 40 -40 49 -26 3 5 -2 9 -10 9 -9 0 -16 7 -16 15
0 18 -16 20 -23 2z"/>
<path d="M3160 1042 c0 -5 7 -9 15 -9 8 0 12 4 9 9 -3 4 -9 8 -15 8 -5 0 -9
-4 -9 -8z"/>
<path d="M3115 1013 c-18 -14 -18 -15 -2 -9 10 3 23 6 28 6 5 0 9 5 9 10 0 14
-12 12 -35 -7z"/>
<path d="M3224 1015 c-4 -8 -1 -21 5 -29 12 -14 5 -26 -12 -22 -7 2 -9 1 -4
-1 4 -3 7 -15 7 -28 0 -12 7 -25 15 -29 8 -3 15 -1 15 5 0 6 10 3 21 -5 27
-18 49 -10 49 18 0 29 10 39 27 25 8 -8 13 -8 13 -1 0 15 -22 21 -42 10 -11
-5 -26 -5 -38 2 -11 6 -24 9 -29 6 -7 -5 -11 8 -12 47 0 21 -8 22 -15 2z"/>
<path d="M3255 1019 c-4 -6 -5 -12 -2 -15 2 -3 7 2 10 11 7 17 1 20 -8 4z"/>
<path d="M3060 1002 c0 -7 -9 -12 -20 -12 -11 0 -20 -4 -20 -9 0 -5 -9 -11
-20 -14 -29 -7 -44 -55 -29 -87 l12 -25 10 34 c6 18 20 37 32 43 20 9 50 66
40 77 -3 2 -5 -1 -5 -7z"/>
<path d="M4897 1003 c-13 -12 -7 -23 13 -23 13 0 18 5 14 15 -7 16 -17 19 -27
8z"/>
<path d="M311 986 c-9 -11 -8 -15 5 -20 9 -3 20 -4 25 0 5 3 9 2 9 -3 0 -13
-14 -30 -30 -36 -10 -4 -8 -6 6 -6 16 -1 24 7 30 27 5 20 8 23 11 10 3 -10 9
-18 14 -18 6 0 5 8 -1 20 -6 11 -15 18 -21 15 -5 -4 -12 1 -15 9 -8 20 -18 20
-33 2z"/>
<path d="M1320 986 c0 -8 5 -18 10 -21 6 -3 10 1 10 9 0 8 -4 18 -10 21 -5 3
-10 -1 -10 -9z"/>
<path d="M2543 983 c-7 -2 -13 -9 -13 -14 0 -6 -9 -19 -19 -30 -21 -23 -34
-59 -21 -59 4 0 11 11 14 25 4 16 11 23 18 19 9 -6 9 -9 0 -12 -7 -2 -12 -8
-12 -13 0 -5 9 -4 20 3 21 14 28 43 8 33 -7 -4 -4 1 7 9 11 9 25 14 32 11 10
-3 11 0 3 15 -11 20 -16 22 -37 13z"/>
<path d="M0 935 c0 -14 3 -25 8 -25 4 0 7 11 7 25 0 14 -3 25 -7 25 -5 0 -8
-11 -8 -25z"/>
<path d="M252 952 c-17 -11 -4 -42 14 -35 8 3 14 12 14 20 0 8 5 11 10 8 6 -3
10 -1 10 4 0 13 -29 14 -48 3z"/>
<path d="M2719 940 c-12 -12 -14 -21 -7 -28 13 -13 0 -35 -16 -29 -6 2 -22 -6
-36 -19 -13 -13 -19 -24 -13 -24 6 0 13 5 15 10 2 6 9 1 16 -11 8 -12 9 -18 3
-14 -6 3 -11 -1 -11 -9 0 -23 15 -20 47 9 17 15 21 23 11 19 -26 -9 -22 5 5
16 17 7 18 9 5 9 -10 1 -18 6 -18 11 0 6 10 8 24 4 19 -4 27 0 36 16 10 18 14
20 21 9 5 -8 9 -10 9 -5 0 13 -49 56 -63 55 -7 0 -19 -9 -28 -19z"/>
<path d="M1230 932 c0 -12 3 -12 15 -2 8 7 15 13 15 15 0 1 -7 2 -15 2 -8 0
-15 -7 -15 -15z"/>
<path d="M2946 933 c-6 -14 -5 -15 5 -6 7 7 10 15 7 18 -3 3 -9 -2 -12 -12z"/>
<path d="M2576 913 c-6 -14 -5 -15 5 -6 7 7 10 15 7 18 -3 3 -9 -2 -12 -12z"/>
<path d="M3426 905 c-9 -14 -15 -25 -13 -25 7 0 47 37 47 44 0 14 -19 4 -34
-19z"/>
<path d="M3336 905 c4 -8 10 -15 15 -15 4 0 6 7 3 15 -4 8 -10 15 -15 15 -4 0
-6 -7 -3 -15z"/>
<path d="M2215 900 c-3 -5 -13 -6 -23 -3 -15 6 -15 5 -2 -11 10 -13 16 -14 18
-6 3 9 6 9 13 -1 4 -7 12 -10 16 -5 4 5 2 11 -5 13 -6 3 -10 9 -6 14 3 5 3 9
0 9 -3 0 -7 -4 -11 -10z"/>
<path d="M2850 883 c0 -10 4 -14 8 -8 4 6 11 13 16 18 5 4 2 7 -7 7 -10 0 -17
-8 -17 -17z"/>
<path d="M2442 870 c0 -14 2 -19 5 -12 2 6 2 18 0 25 -3 6 -5 1 -5 -13z"/>
<path d="M2629 873 c-13 -16 -12 -17 4 -4 16 13 21 21 13 21 -2 0 -10 -8 -17
-17z"/>
<path d="M3226 881 c-4 -5 -2 -12 3 -15 5 -4 12 -2 15 3 4 5 2 12 -3 15 -5 4
-12 2 -15 -3z"/>
<path d="M2890 841 c0 -10 19 -25 25 -20 1 2 -3 10 -11 17 -8 7 -14 8 -14 3z"/>
<path d="M2188 833 c6 -2 18 -2 25 0 6 3 1 5 -13 5 -14 0 -19 -2 -12 -5z"/>
<path d="M2850 822 c0 -15 11 -21 27 -15 12 5 12 7 1 14 -17 11 -28 11 -28 1z"/>
<path d="M2075 800 c-3 -5 -1 -10 4 -10 6 0 11 5 11 10 0 6 -2 10 -4 10 -3 0
-8 -4 -11 -10z"/>
<path d="M420 780 c-8 -5 -12 -12 -9 -15 4 -3 12 1 19 10 14 17 11 19 -10 5z"/>
<path d="M2365 777 c-4 -9 -13 -13 -21 -10 -8 3 -15 0 -15 -6 -1 -6 -2 -17 -3
-23 -2 -20 34 -44 44 -28 4 6 11 12 16 11 11 0 6 50 -7 63 -5 6 -11 3 -14 -7z"/>
<path d="M2030 769 c0 -5 5 -7 10 -4 6 3 10 8 10 11 0 2 -4 4 -10 4 -5 0 -10
-5 -10 -11z"/>
<path d="M1211 754 c0 -11 3 -14 6 -6 3 7 2 16 -1 19 -3 4 -6 -2 -5 -13z"/>
<path d="M1258 763 c7 -3 16 -2 19 1 4 3 -2 6 -13 5 -11 0 -14 -3 -6 -6z"/>
<path d="M2168 746 c-9 -8 -18 -12 -22 -9 -3 4 -6 2 -6 -4 0 -14 44 -26 48
-13 2 5 11 6 20 3 13 -4 14 -3 3 5 -7 5 -17 15 -21 22 -5 8 -11 8 -22 -4z"/>
<path d="M2248 753 c6 -2 18 -2 25 0 6 3 1 5 -13 5 -14 0 -19 -2 -12 -5z"/>
<path d="M4308 703 c7 -3 16 -2 19 1 4 3 -2 6 -13 5 -11 0 -14 -3 -6 -6z"/>
<path d="M4193 685 c-3 -9 -3 -19 1 -22 3 -4 6 -1 6 5 0 7 7 12 16 12 8 0 12
5 9 10 -9 15 -25 12 -32 -5z"/>
<path d="M4350 680 c6 -11 13 -20 16 -20 2 0 0 9 -6 20 -6 11 -13 20 -16 20
-2 0 0 -9 6 -20z"/>
<path d="M280 679 c0 -5 5 -7 10 -4 6 3 10 8 10 11 0 2 -4 4 -10 4 -5 0 -10
-5 -10 -11z"/>
<path d="M2247 679 c7 -7 15 -10 18 -7 3 3 -2 9 -12 12 -14 6 -15 5 -6 -5z"/>
<path d="M1897 673 c-4 -3 -7 -11 -7 -17 0 -6 5 -5 12 2 6 6 9 14 7 17 -3 3
-9 2 -12 -2z"/>
<path d="M308 649 c-10 -5 -18 -17 -18 -25 0 -19 16 -10 30 17 12 22 11 22
-12 8z"/>
<path d="M1740 635 c0 -14 4 -25 9 -25 4 0 6 11 3 25 -2 14 -6 25 -8 25 -2 0
-4 -11 -4 -25z"/>
<path d="M595 640 c3 -5 8 -10 11 -10 2 0 4 5 4 10 0 6 -5 10 -11 10 -5 0 -7
-4 -4 -10z"/>
<path d="M1194 593 c-13 -12 -24 -26 -24 -31 0 -6 -7 -12 -15 -16 -16 -6 -17
-56 -2 -56 5 0 6 7 3 15 -4 10 2 19 17 24 26 11 45 -2 30 -21 -6 -7 -10 -27
-10 -44 0 -16 -3 -35 -7 -42 -10 -16 5 -15 29 2 29 19 95 30 95 15 0 -7 3 -9
6 -6 4 4 2 13 -5 21 -17 20 -4 71 14 56 17 -14 32 7 16 23 -7 7 -7 14 0 24 8
9 8 13 0 13 -6 0 -11 7 -11 16 0 14 2 14 16 3 14 -12 16 -11 13 6 -4 18 -13
20 -73 20 -57 0 -73 -4 -92 -22z m115 -53 c1 -3 -8 -6 -19 -7 -23 -2 -72 -37
-65 -47 3 -3 0 -2 -6 3 -8 7 -7 15 3 30 8 12 18 18 23 13 4 -4 5 1 2 11 -5 12
-1 17 13 17 10 0 22 5 26 12 5 8 10 6 15 -8 4 -10 8 -21 8 -24z m21 20 c0 -5
-4 -10 -10 -10 -5 0 -10 5 -10 10 0 6 5 10 10 10 6 0 10 -4 10 -10z"/>
<path d="M220 586 c0 -9 5 -16 10 -16 6 0 10 4 10 9 0 6 -4 13 -10 16 -5 3
-10 -1 -10 -9z"/>
<path d="M4183 543 c-15 -5 -17 -23 -4 -23 5 0 11 7 15 15 3 8 4 15 3 14 -1 0
-8 -3 -14 -6z"/>
<path d="M850 525 c0 -16 16 -20 24 -6 3 5 -1 11 -9 15 -9 3 -15 0 -15 -9z"/>
<path d="M1443 519 c-1 -10 4 -18 10 -16 7 1 11 -9 10 -25 -2 -33 22 -39 30
-8 3 11 1 20 -4 20 -5 0 -9 8 -9 19 0 25 -35 35 -37 10z"/>
<path d="M800 494 c0 -8 5 -12 10 -9 6 3 10 10 10 16 0 5 -4 9 -10 9 -5 0 -10
-7 -10 -16z"/>
<path d="M956 473 c-6 -14 -5 -15 5 -6 7 7 10 15 7 18 -3 3 -9 -2 -12 -12z"/>
<path d="M1100 479 c0 -5 5 -7 10 -4 6 3 10 8 10 11 0 2 -4 4 -10 4 -5 0 -10
-5 -10 -11z"/>
<path d="M1387 484 c-3 -5 1 -15 9 -22 16 -14 18 -5 5 17 -5 7 -11 9 -14 5z"/>
<path d="M4217 473 c-11 -12 -17 -13 -17 -5 0 7 -5 10 -11 6 -8 -4 -7 -9 2
-15 22 -14 36 -10 42 11 6 24 6 24 -16 3z"/>
<path d="M1151 449 c-16 -13 -18 -19 -8 -19 15 0 43 27 36 34 -2 3 -15 -4 -28
-15z"/>
<path d="M5020 410 c0 -5 7 -10 16 -10 8 0 12 5 9 10 -3 6 -10 10 -16 10 -5 0
-9 -4 -9 -10z"/>
<path d="M936 395 c-9 -26 -7 -32 5 -12 6 10 9 21 6 23 -2 3 -7 -2 -11 -11z"/>
<path d="M5020 386 c0 -3 9 -10 20 -16 11 -6 20 -8 20 -6 0 3 -9 10 -20 16
-11 6 -20 8 -20 6z"/>
<path d="M860 370 c0 -5 5 -10 11 -10 5 0 7 5 4 10 -3 6 -8 10 -11 10 -2 0 -4
-4 -4 -10z"/>
<path d="M1372 349 c2 -6 8 -10 13 -10 5 0 11 4 13 10 2 6 -4 11 -13 11 -9 0
-15 -5 -13 -11z"/>
<path d="M4680 350 c0 -5 5 -10 11 -10 5 0 7 5 4 10 -3 6 -8 10 -11 10 -2 0
-4 -4 -4 -10z"/>
<path d="M986 332 c-2 -4 -1 -14 3 -21 6 -10 10 -9 14 3 6 16 -8 32 -17 18z"/>
<path d="M930 326 c0 -2 7 -9 15 -16 13 -11 14 -10 9 4 -5 14 -24 23 -24 12z"/>
<path d="M1330 326 c0 -2 7 -7 16 -10 8 -3 12 -2 9 4 -6 10 -25 14 -25 6z"/>
<path d="M4458 325 c-3 -3 -22 -6 -42 -7 -50 -2 -46 -24 7 -32 23 -4 80 -20
127 -35 47 -16 116 -32 155 -36 38 -4 87 -16 109 -27 41 -21 83 -21 179 1 65
14 67 16 67 61 0 33 -3 38 -20 35 -12 -2 -26 5 -36 18 l-16 22 5 -23 c4 -18 2
-22 -9 -18 -9 4 -14 -2 -14 -17 0 -18 2 -19 11 -7 9 13 10 13 6 0 -7 -24 -57
-12 -91 21 -24 24 -37 28 -69 26 -21 -2 -43 -10 -48 -18 -6 -10 -9 -10 -9 -1
0 6 -4 12 -10 12 -5 0 -7 -7 -4 -15 5 -11 2 -13 -10 -9 -9 3 -16 11 -16 18 -1
6 -6 5 -13 -4 -16 -21 -28 -19 -55 6 -23 21 -47 25 -70 10 -7 -4 -27 -2 -44 5
-23 9 -32 10 -37 0 -6 -9 -11 -8 -21 4 -13 16 -23 19 -32 10z m432 -56 c0 -5
-4 -9 -8 -9 -5 0 -9 7 -9 15 0 8 4 12 9 9 4 -3 8 -9 8 -15z"/>
<path d="M1100 140 c0 -5 8 -6 17 -3 13 5 15 3 9 -13 -5 -14 -4 -16 5 -7 6 6
8 16 5 22 -9 14 -36 15 -36 1z"/>
<path d="M226 8 c7 -10 24 -10 24 0 0 5 -7 9 -15 9 -8 0 -12 -4 -9 -9z"/>
<path d="M5040 10 c-13 -8 -12 -10 3 -10 9 0 17 5 17 10 0 12 -1 12 -20 0z"/>
</g>
</svg>
